<svg width="82" height="11" viewBox="0 0 82 11" fill="none" xmlns="http://www.w3.org/2000/svg">
<path d="M3.3 7.824C3.292 7.848 3.272 7.86 3.24 7.86C3.168 7.86 3.144 7.828 3.168 7.764C3.352 7.42 3.632 7.064 4.008 6.696C4.384 6.328 4.84 6.008 5.376 5.736C5.912 5.456 6.508 5.288 7.164 5.232C7.22 5.224 7.272 5.22 7.32 5.22C7.368 5.22 7.42 5.22 7.476 5.22C7.996 5.22 8.372 5.336 8.604 5.568C8.836 5.792 8.936 6.076 8.904 6.42C8.864 6.9 8.692 7.34 8.388 7.74C8.092 8.14 7.708 8.484 7.236 8.772C6.772 9.06 6.264 9.28 5.712 9.432C5.16 9.592 4.612 9.672 4.068 9.672C3.492 9.672 2.956 9.572 2.46 9.372C1.972 9.18 1.576 8.876 1.272 8.46C0.976 8.036 0.828 7.484 0.828 6.804C0.828 6.74 0.828 6.676 0.828 6.612C0.828 6.548 0.832 6.484 0.84 6.42C0.888 5.908 1.032 5.38 1.272 4.836C1.52 4.292 1.852 3.772 2.268 3.276C2.692 2.78 3.188 2.336 3.756 1.944C4.332 1.552 4.968 1.24 5.664 1.008C6.36 0.776 7.108 0.659999 7.908 0.659999C8.436 0.659999 8.824 0.756 9.072 0.948C9.328 1.14 9.456 1.364 9.456 1.62C9.456 1.82 9.38 2.028 9.228 2.244C9.076 2.452 8.856 2.636 8.568 2.796C8.248 2.972 7.896 3.112 7.512 3.216C7.136 3.312 6.772 3.384 6.42 3.432C6.068 3.472 5.776 3.504 5.544 3.528H5.532C5.508 3.528 5.496 3.516 5.496 3.492C5.496 3.452 5.524 3.428 5.58 3.42C6.108 3.364 6.624 3.26 7.128 3.108C7.632 2.948 8.064 2.76 8.424 2.544C8.624 2.424 8.784 2.276 8.904 2.1C9.024 1.924 9.084 1.748 9.084 1.572C9.084 1.372 8.984 1.2 8.784 1.056C8.592 0.903999 8.268 0.827999 7.812 0.827999C7.116 0.827999 6.464 0.944 5.856 1.176C5.256 1.4 4.708 1.708 4.212 2.1C3.724 2.484 3.296 2.924 2.928 3.42C2.568 3.908 2.28 4.42 2.064 4.956C1.856 5.484 1.728 6 1.68 6.504C1.672 6.584 1.664 6.66 1.656 6.732C1.656 6.804 1.656 6.876 1.656 6.948C1.656 7.564 1.772 8.064 2.004 8.448C2.236 8.832 2.544 9.108 2.928 9.276C3.312 9.452 3.732 9.54 4.188 9.54C4.66 9.54 5.136 9.46 5.616 9.3C6.096 9.14 6.544 8.92 6.96 8.64C7.376 8.352 7.716 8.016 7.98 7.632C8.252 7.248 8.404 6.836 8.436 6.396C8.468 6.068 8.38 5.808 8.172 5.616C7.972 5.416 7.636 5.336 7.164 5.376C6.532 5.432 5.956 5.596 5.436 5.868C4.916 6.132 4.472 6.44 4.104 6.792C3.744 7.144 3.476 7.488 3.3 7.824ZM10.1686 9.24C9.86459 9.24 9.60059 9.144 9.37659 8.952C9.16059 8.752 9.05259 8.448 9.05259 8.04C9.05259 7.784 9.09659 7.52 9.18459 7.248C9.28059 6.968 9.38459 6.72 9.49659 6.504C9.70459 6.112 9.96459 5.772 10.2766 5.484C10.5966 5.188 10.9766 5.04 11.4166 5.04C11.8406 5.04 12.1366 5.156 12.3046 5.388C12.4726 5.62 12.5566 5.904 12.5566 6.24C12.5566 6.376 12.5446 6.516 12.5206 6.66C12.4566 7.052 12.3246 7.432 12.1246 7.8C12.1806 7.88 12.2526 7.948 12.3406 8.004C12.4366 8.052 12.5406 8.076 12.6526 8.076C12.8446 8.076 13.0086 8.024 13.1446 7.92C13.2806 7.816 13.3966 7.688 13.4926 7.536C13.5966 7.376 13.6846 7.228 13.7566 7.092C13.8046 7.004 13.8486 6.96 13.8886 6.96C13.9126 6.96 13.9246 6.976 13.9246 7.008C13.9246 7.04 13.9006 7.112 13.8526 7.224C13.7166 7.496 13.5566 7.732 13.3726 7.932C13.1886 8.132 12.9486 8.232 12.6526 8.232C12.3806 8.232 12.1726 8.136 12.0286 7.944C11.8046 8.312 11.5326 8.62 11.2126 8.868C10.8926 9.116 10.5446 9.24 10.1686 9.24ZM10.1926 9.096C10.5846 9.096 10.9726 8.904 11.3566 8.52C11.4686 8.408 11.5686 8.292 11.6566 8.172C11.7526 8.044 11.8366 7.916 11.9086 7.788C11.8046 7.668 11.7286 7.54 11.6806 7.404C11.6406 7.26 11.6206 7.124 11.6206 6.996C11.6206 6.796 11.6566 6.62 11.7286 6.468C11.8006 6.308 11.9006 6.228 12.0286 6.228C12.0926 6.228 12.1526 6.26 12.2086 6.324C12.2726 6.388 12.3126 6.488 12.3286 6.624C12.3526 6.512 12.3646 6.392 12.3646 6.264C12.3646 5.96 12.3086 5.72 12.1966 5.544C12.0846 5.36 11.8966 5.268 11.6326 5.268C11.4726 5.268 11.3086 5.332 11.1406 5.46C10.9726 5.58 10.8126 5.728 10.6606 5.904C10.5166 6.08 10.3886 6.26 10.2766 6.444C10.1646 6.628 10.0806 6.78 10.0246 6.9C9.88859 7.196 9.78859 7.46 9.72459 7.692C9.66859 7.924 9.64059 8.128 9.64059 8.304C9.64059 8.56 9.69259 8.756 9.79659 8.892C9.90859 9.028 10.0406 9.096 10.1926 9.096ZM16.6478 9.084C16.3758 9.084 16.1798 8.992 16.0598 8.808C15.9398 8.616 15.8798 8.38 15.8798 8.1C15.8798 7.82 15.9278 7.544 16.0238 7.272L16.1438 6.924L15.6998 7.608C15.5878 7.784 15.4398 7.984 15.2558 8.208C15.0798 8.424 14.8918 8.612 14.6918 8.772C14.4358 8.98 14.2038 9.084 13.9958 9.084C13.7958 9.084 13.6398 9 13.5278 8.832C13.4238 8.664 13.3718 8.452 13.3718 8.196C13.3718 8.02 13.3958 7.844 13.4438 7.668C13.5638 7.22 13.7478 6.812 13.9958 6.444C14.2438 6.068 14.5558 5.744 14.9318 5.472C15.0918 5.352 15.2958 5.256 15.5438 5.184C15.7918 5.104 16.0398 5.064 16.2878 5.064C16.3838 5.064 16.4798 5.072 16.5758 5.088C16.6718 5.104 16.7598 5.124 16.8398 5.148C16.9038 5.004 16.9758 4.844 17.0558 4.668C17.1438 4.492 17.2278 4.32 17.3078 4.152C17.3958 3.976 17.4678 3.832 17.5238 3.72C17.6838 3.392 17.8838 3 18.1238 2.544C18.3638 2.088 18.6438 1.664 18.9638 1.272C19.2118 0.96 19.4958 0.688 19.8158 0.456C20.1438 0.216 20.4598 0.0959995 20.7638 0.0959995C20.9478 0.0959995 21.0838 0.151999 21.1718 0.263999C21.2678 0.375999 21.3158 0.512 21.3158 0.672C21.3158 0.816 21.2878 0.947999 21.2318 1.068C21.1038 1.356 20.8998 1.66 20.6198 1.98C20.3478 2.3 20.0518 2.612 19.7318 2.916C19.4198 3.212 19.1398 3.48 18.8918 3.72C18.6838 3.92 18.4998 4.096 18.3398 4.248C18.1798 4.392 18.0318 4.536 17.8958 4.68C17.7598 4.824 17.6118 4.984 17.4518 5.16C17.2758 5.56 17.1118 5.96 16.9598 6.36C16.8158 6.76 16.6958 7.132 16.5998 7.476C16.5118 7.82 16.4678 8.108 16.4678 8.34C16.4678 8.668 16.5678 8.844 16.7678 8.868C16.9038 8.868 17.0318 8.824 17.1518 8.736C17.2718 8.648 17.3758 8.552 17.4638 8.448C17.6478 8.248 17.8158 8.028 17.9678 7.788C18.1198 7.548 18.2718 7.292 18.4238 7.02C18.4478 6.988 18.4718 6.972 18.4958 6.972C18.5278 6.972 18.5438 6.996 18.5438 7.044C18.5438 7.084 18.5358 7.116 18.5198 7.14C18.3758 7.404 18.2198 7.668 18.0518 7.932C17.8918 8.196 17.6958 8.444 17.4638 8.676C17.3598 8.78 17.2398 8.876 17.1038 8.964C16.9678 9.044 16.8158 9.084 16.6478 9.084ZM17.6438 4.74C17.8278 4.532 17.9998 4.348 18.1598 4.188C18.3198 4.02 18.5158 3.816 18.7478 3.576C18.9718 3.352 19.2278 3.088 19.5158 2.784C19.8118 2.48 20.0878 2.172 20.3438 1.86C20.6078 1.548 20.7998 1.272 20.9198 1.032C21.0158 0.84 21.0638 0.684 21.0638 0.564C21.0638 0.364 20.9638 0.263999 20.7638 0.263999C20.5158 0.263999 20.2558 0.379999 19.9838 0.611999C19.7198 0.836 19.4598 1.144 19.2038 1.536C18.9878 1.872 18.7838 2.24 18.5918 2.64C18.3998 3.032 18.2238 3.412 18.0638 3.78C17.9038 4.148 17.7638 4.468 17.6438 4.74ZM14.2478 8.712C14.3918 8.712 14.5638 8.616 14.7638 8.424C14.9718 8.224 15.1838 7.98 15.3998 7.692C15.6238 7.396 15.8278 7.108 16.0117 6.828C16.0678 6.748 16.1398 6.616 16.2278 6.432C16.3238 6.248 16.4238 6.052 16.5278 5.844C16.6318 5.628 16.7198 5.44 16.7918 5.28C16.7438 5.264 16.6958 5.256 16.6478 5.256C16.6078 5.256 16.5638 5.256 16.5158 5.256C16.2678 5.256 16.0198 5.324 15.7718 5.46C15.5318 5.588 15.3158 5.76 15.1238 5.976C14.8518 6.272 14.6238 6.592 14.4398 6.936C14.2558 7.272 14.1278 7.568 14.0558 7.824C14.0158 7.968 13.9958 8.116 13.9958 8.268C13.9958 8.388 14.0118 8.492 14.0438 8.58C14.0838 8.668 14.1518 8.712 14.2478 8.712ZM19.7409 9.108C19.2849 9.108 18.9289 8.984 18.6729 8.736C18.4249 8.488 18.3009 8.156 18.3009 7.74C18.3009 7.596 18.3169 7.444 18.3489 7.284C18.3809 7.116 18.4329 6.944 18.5049 6.768C18.6169 6.504 18.7609 6.244 18.9369 5.988C19.1129 5.732 19.3249 5.516 19.5729 5.34C19.8209 5.164 20.0969 5.064 20.4009 5.04C20.5129 5.032 20.6169 5.04 20.7129 5.064C20.8089 5.088 20.8929 5.136 20.9649 5.208C21.0289 5.264 21.0729 5.336 21.0969 5.424C21.1289 5.504 21.1449 5.588 21.1449 5.676C21.1449 5.924 21.0689 6.176 20.9169 6.432C20.7649 6.68 20.5729 6.888 20.3409 7.056C20.1089 7.224 19.8689 7.308 19.6209 7.308C19.3969 7.308 19.2009 7.228 19.0329 7.068C18.9609 7.316 18.9249 7.564 18.9249 7.812C18.9249 8.116 18.9929 8.376 19.1289 8.592C19.2729 8.8 19.5169 8.904 19.8609 8.904C20.2049 8.904 20.5009 8.812 20.7489 8.628C21.0049 8.444 21.2249 8.216 21.4089 7.944C21.6009 7.664 21.7689 7.396 21.9129 7.14C21.9289 7.116 21.9449 7.104 21.9609 7.104C21.9929 7.104 22.0089 7.136 22.0089 7.2C22.0089 7.24 21.9969 7.284 21.9729 7.332C21.8209 7.604 21.6449 7.876 21.4449 8.148C21.2529 8.42 21.0169 8.648 20.7369 8.832C20.4649 9.016 20.1329 9.108 19.7409 9.108ZM19.0929 6.888C19.1489 6.968 19.2129 7.028 19.2849 7.068C19.3649 7.1 19.4449 7.116 19.5249 7.116C19.7169 7.116 19.9169 7.044 20.1249 6.9C20.3329 6.748 20.5009 6.572 20.6289 6.372C20.6849 6.284 20.7329 6.168 20.7729 6.024C20.8209 5.88 20.8449 5.744 20.8449 5.616C20.8449 5.504 20.8209 5.408 20.7729 5.328C20.7329 5.24 20.6489 5.196 20.5209 5.196C20.3769 5.196 20.2049 5.284 20.0049 5.46C19.8129 5.636 19.6289 5.864 19.4529 6.144C19.3969 6.24 19.3329 6.352 19.2609 6.48C19.1969 6.608 19.1409 6.744 19.0929 6.888ZM26.9887 9.48C26.9487 9.48 26.9247 9.464 26.9167 9.432C26.9087 9.4 26.9207 9.372 26.9527 9.348C27.0647 9.26 27.1727 9.168 27.2767 9.072C27.3887 8.976 27.4767 8.872 27.5407 8.76L27.6727 8.532C27.8487 8.22 27.9807 7.876 28.0687 7.5C28.1567 7.116 28.2207 6.716 28.2607 6.3C28.3087 5.884 28.3487 5.476 28.3807 5.076C28.4127 4.668 28.4647 4.284 28.5367 3.924C28.5767 3.716 28.6247 3.52 28.6807 3.336C28.7447 3.144 28.8207 2.968 28.9087 2.808C28.9967 2.656 29.1127 2.488 29.2567 2.304C29.4007 2.12 29.5607 1.968 29.7367 1.848C29.8487 1.768 29.9487 1.708 30.0367 1.668C30.1327 1.628 30.2087 1.6 30.2647 1.584C30.0407 1.464 29.7527 1.36 29.4007 1.272C29.0567 1.176 28.7127 1.128 28.3687 1.128C28.0007 1.128 27.6327 1.18 27.2647 1.284C26.9047 1.38 26.5647 1.516 26.2447 1.692C25.9087 1.876 25.5927 2.124 25.2967 2.436C25.0007 2.74 24.7567 3.076 24.5647 3.444C24.3727 3.812 24.2607 4.188 24.2287 4.572C24.2207 4.764 24.2447 4.944 24.3007 5.112C24.3567 5.272 24.4527 5.396 24.5887 5.484C24.6527 5.524 24.7287 5.556 24.8167 5.58C24.9127 5.596 25.0087 5.604 25.1047 5.604C25.2807 5.604 25.4447 5.576 25.5967 5.52C25.6207 5.512 25.6487 5.508 25.6807 5.508C25.7207 5.508 25.7407 5.52 25.7407 5.544C25.7407 5.592 25.6967 5.632 25.6087 5.664C25.4487 5.744 25.2527 5.784 25.0207 5.784C24.7807 5.784 24.5647 5.736 24.3727 5.64C24.1567 5.528 24.0047 5.364 23.9167 5.148C23.8367 4.924 23.7967 4.696 23.7967 4.464C23.7967 3.992 23.9127 3.552 24.1447 3.144C24.3767 2.736 24.6727 2.376 25.0327 2.064C25.4007 1.752 25.7887 1.512 26.1967 1.344C26.5487 1.192 26.9087 1.084 27.2767 1.02C27.6447 0.956 28.0047 0.924 28.3567 0.924C28.7007 0.924 29.0647 0.976 29.4487 1.08C29.8407 1.176 30.1727 1.328 30.4447 1.536C30.4767 1.56 30.4927 1.584 30.4927 1.608V1.62C30.4927 1.668 30.4647 1.692 30.4087 1.692C30.1447 1.692 29.9247 1.784 29.7487 1.968C29.5807 2.152 29.4447 2.38 29.3407 2.652C29.2447 2.924 29.1727 3.204 29.1247 3.492C29.0847 3.772 29.0607 4.008 29.0527 4.2C29.0447 4.776 29.0247 5.336 28.9927 5.88C28.9607 6.424 28.8727 6.936 28.7287 7.416C28.5927 7.896 28.3527 8.332 28.0087 8.724C28.0007 8.732 27.9967 8.744 27.9967 8.76C27.9967 8.816 28.0367 8.816 28.1167 8.76C28.3567 8.552 28.6007 8.28 28.8487 7.944C29.0967 7.608 29.3327 7.26 29.5567 6.9C29.7887 6.532 29.9927 6.204 30.1687 5.916C30.5047 5.364 30.8287 4.824 31.1407 4.296C31.4607 3.76 31.7567 3.292 32.0287 2.892C32.3007 2.492 32.5367 2.22 32.7367 2.076C33.0727 1.836 33.3327 1.684 33.5167 1.62C33.7087 1.548 33.8927 1.52 34.0687 1.536C34.1247 1.536 34.1527 1.56 34.1527 1.608C34.1527 1.664 34.1247 1.692 34.0687 1.692C33.8207 1.692 33.6207 1.776 33.4687 1.944C33.3167 2.112 33.1687 2.324 33.0247 2.58C32.8967 2.812 32.8127 3.092 32.7727 3.42C32.7327 3.74 32.7087 4.092 32.7007 4.476C32.6927 4.852 32.6807 5.244 32.6647 5.652C32.6567 6.052 32.6167 6.452 32.5447 6.852C32.4727 7.252 32.3447 7.636 32.1607 8.004C31.9847 8.364 31.7287 8.696 31.3927 9C31.6647 8.904 31.9487 8.668 32.2447 8.292C32.5487 7.916 32.8607 7.452 33.1807 6.9C33.5087 6.348 33.8447 5.756 34.1887 5.124C34.5407 4.492 34.8967 3.868 35.2567 3.252C35.6247 2.628 35.9927 2.064 36.3607 1.56C36.7127 1.088 37.0847 0.768 37.4767 0.599999C37.8767 0.423999 38.2247 0.335999 38.5207 0.335999C38.9047 0.335999 39.2007 0.471999 39.4087 0.744C39.4247 0.76 39.4327 0.779999 39.4327 0.804C39.4327 0.828 39.4207 0.844 39.3967 0.852C39.3807 0.86 39.3607 0.852 39.3367 0.827999C39.2887 0.787999 39.2327 0.76 39.1687 0.744C39.1047 0.727999 39.0327 0.719999 38.9527 0.719999C38.8487 0.719999 38.7367 0.731999 38.6167 0.756C38.2007 0.843999 37.8007 1.036 37.4167 1.332C37.0327 1.628 36.6647 1.996 36.3127 2.436C35.9687 2.868 35.6327 3.344 35.3047 3.864C34.9847 4.376 34.6687 4.9 34.3567 5.436C34.0447 5.972 33.7367 6.484 33.4327 6.972C33.1367 7.46 32.8367 7.896 32.5327 8.28C32.2287 8.664 31.9207 8.964 31.6087 9.18C31.2967 9.396 30.9767 9.496 30.6487 9.48C30.6087 9.48 30.5807 9.464 30.5647 9.432C30.5567 9.408 30.5727 9.38 30.6127 9.348C30.9407 9.124 31.1967 8.812 31.3807 8.412C31.5647 8.004 31.7007 7.556 31.7887 7.068C31.8767 6.58 31.9407 6.096 31.9807 5.616C32.0287 5.136 32.0807 4.712 32.1367 4.344C32.1767 4.048 32.2487 3.72 32.3527 3.36C32.4647 3 32.6207 2.672 32.8207 2.376C33.0287 2.072 33.2927 1.86 33.6127 1.74C33.4207 1.78 33.2127 1.904 32.9887 2.112C32.7727 2.32 32.5447 2.58 32.3047 2.892C32.0727 3.204 31.8407 3.544 31.6087 3.912C31.3767 4.272 31.1567 4.632 30.9487 4.992C30.7407 5.352 30.5527 5.68 30.3847 5.976C30.2247 6.264 30.0887 6.496 29.9767 6.672C29.7207 7.088 29.4567 7.484 29.1847 7.86C28.9207 8.236 28.6567 8.552 28.3927 8.808L28.2007 8.964C28.0007 9.132 27.8007 9.264 27.6007 9.36C27.4007 9.456 27.1967 9.496 26.9887 9.48ZM35.2553 9.072C35.0313 9.072 34.8673 9 34.7633 8.856C34.6593 8.704 34.6073 8.52 34.6073 8.304C34.6073 8.24 34.6113 8.176 34.6193 8.112C34.6353 8.04 34.6513 7.968 34.6673 7.896C34.7553 7.576 34.8913 7.22 35.0753 6.828C35.2673 6.428 35.4513 6.072 35.6273 5.76C35.7313 5.584 35.8273 5.46 35.9153 5.388C36.0033 5.308 36.0993 5.252 36.2033 5.22C36.3073 5.18 36.4313 5.136 36.5753 5.088C36.6153 5.072 36.6553 5.06 36.6953 5.052C36.7353 5.044 36.7793 5.036 36.8273 5.028C36.6673 5.188 36.5033 5.38 36.3353 5.604C36.1753 5.828 35.9993 6.136 35.8073 6.528C35.7033 6.736 35.5993 6.968 35.4953 7.224C35.3993 7.48 35.3153 7.72 35.2433 7.944C35.1713 8.168 35.1313 8.344 35.1233 8.472C35.1153 8.624 35.1353 8.732 35.1833 8.796C35.2313 8.86 35.2953 8.892 35.3753 8.892C35.5113 8.892 35.6393 8.844 35.7593 8.748C35.8873 8.652 35.9993 8.552 36.0953 8.448C36.2713 8.248 36.4353 8.028 36.5873 7.788C36.7473 7.548 36.9033 7.292 37.0553 7.02C37.0793 6.988 37.0993 6.972 37.1152 6.972C37.1473 6.972 37.1633 6.996 37.1633 7.044C37.1633 7.084 37.1553 7.116 37.1393 7.14C36.9953 7.404 36.8433 7.668 36.6833 7.932C36.5233 8.196 36.3273 8.444 36.0953 8.676C35.9913 8.78 35.8673 8.872 35.7233 8.952C35.5873 9.032 35.4313 9.072 35.2553 9.072ZM36.7193 4.356C36.6313 4.356 36.5553 4.324 36.4913 4.26C36.4353 4.196 36.4073 4.12 36.4073 4.032C36.4073 3.92 36.4513 3.82 36.5393 3.732C36.6353 3.644 36.7393 3.592 36.8513 3.576C36.9393 3.576 37.0113 3.608 37.0673 3.672C37.1313 3.728 37.1633 3.804 37.1633 3.9C37.1633 4.004 37.1193 4.108 37.0312 4.212C36.9433 4.308 36.8393 4.356 36.7193 4.356ZM37.4138 9.084C37.2378 9.084 37.0738 9.028 36.9218 8.916C36.7698 8.796 36.6938 8.604 36.6938 8.34C36.6938 8.06 36.7618 7.752 36.8978 7.416C37.0338 7.08 37.1618 6.78 37.2818 6.516C37.3458 6.388 37.4298 6.216 37.5338 6C37.6458 5.776 37.7658 5.556 37.8938 5.34H37.3298C37.3058 5.34 37.2938 5.32 37.2938 5.28C37.2938 5.248 37.3058 5.216 37.3298 5.184C37.3538 5.144 37.3818 5.124 37.4138 5.124C37.6378 5.124 37.8058 5.104 37.9178 5.064C38.0298 5.024 38.1258 4.968 38.2058 4.896C38.3338 4.784 38.4578 4.64 38.5778 4.464C38.7058 4.288 38.8298 4.136 38.9498 4.008C39.0378 3.896 39.1458 3.812 39.2738 3.756C39.4098 3.7 39.4978 3.68 39.5378 3.696C39.4978 3.752 39.4338 3.848 39.3458 3.984C39.2578 4.12 39.1658 4.268 39.0698 4.428C38.9738 4.588 38.8858 4.736 38.8058 4.872C38.7258 5.008 38.6738 5.1 38.6498 5.148H40.1378C40.3458 4.692 40.5818 4.212 40.8458 3.708C41.1178 3.204 41.4178 2.724 41.7458 2.268C42.0738 1.804 42.4298 1.4 42.8138 1.056C43.1978 0.711999 43.6058 0.471999 44.0378 0.335999C44.0858 0.327999 44.1338 0.319999 44.1818 0.312C44.2298 0.304 44.2778 0.3 44.3258 0.3C44.4458 0.3 44.5498 0.328 44.6378 0.383999C44.7498 0.455999 44.8058 0.583999 44.8058 0.767999C44.8058 0.896 44.7698 1.052 44.6978 1.236C44.5698 1.556 44.3578 1.9 44.0618 2.268C43.7738 2.636 43.4338 3.012 43.0418 3.396C42.5538 3.868 42.0858 4.284 41.6378 4.644C41.1898 5.004 40.8298 5.288 40.5578 5.496C40.3978 5.84 40.2658 6.14 40.1618 6.396C40.0578 6.644 39.9898 6.824 39.9578 6.936C40.0858 6.744 40.2298 6.536 40.3898 6.312C40.5578 6.08 40.7058 5.9 40.8338 5.772C41.0178 5.588 41.2018 5.432 41.3858 5.304C41.5698 5.176 41.7498 5.104 41.9258 5.088C42.1978 5.064 42.3938 5.1 42.5138 5.196C42.6338 5.284 42.6938 5.416 42.6938 5.592C42.6938 5.768 42.6458 5.964 42.5498 6.18C42.4458 6.428 42.3218 6.676 42.1778 6.924C42.0338 7.172 41.9018 7.412 41.7818 7.644C41.7498 7.708 41.6898 7.832 41.6018 8.016C41.5218 8.192 41.4698 8.36 41.4458 8.52C41.4458 8.528 41.4418 8.54 41.4338 8.556C41.4338 8.572 41.4338 8.588 41.4338 8.604C41.4338 8.692 41.4578 8.76 41.5058 8.808C41.5538 8.848 41.6098 8.868 41.6738 8.868C41.8098 8.868 41.9378 8.824 42.0578 8.736C42.1778 8.648 42.2818 8.552 42.3698 8.448C42.5538 8.248 42.7218 8.028 42.8737 7.788C43.0258 7.548 43.1778 7.292 43.3298 7.02C43.3538 6.988 43.3778 6.972 43.4018 6.972C43.4338 6.972 43.4498 6.996 43.4498 7.044C43.4498 7.084 43.4418 7.116 43.4258 7.14C43.2818 7.404 43.1258 7.668 42.9578 7.932C42.7978 8.196 42.6018 8.444 42.3698 8.676C42.2658 8.78 42.1458 8.876 42.0098 8.964C41.8738 9.044 41.7218 9.084 41.5538 9.084C41.2818 9.084 41.0898 9.008 40.9778 8.856C40.8738 8.696 40.8218 8.52 40.8218 8.328C40.8218 8.176 40.8498 8.024 40.9058 7.872C41.0418 7.52 41.2298 7.184 41.4698 6.864C41.7098 6.544 41.9098 6.212 42.0698 5.868C42.1258 5.764 42.1537 5.668 42.1537 5.58C42.1537 5.484 42.1258 5.412 42.0698 5.364C42.0138 5.316 41.9538 5.292 41.8898 5.292C41.7378 5.292 41.5698 5.36 41.3858 5.496C41.2098 5.624 41.0378 5.788 40.8698 5.988C40.7178 6.164 40.5618 6.368 40.4018 6.6C40.2418 6.824 40.0898 7.064 39.9458 7.32C39.8098 7.552 39.6698 7.796 39.5258 8.052C39.3818 8.3 39.2658 8.512 39.1777 8.688C39.1138 8.824 39.0458 8.912 38.9738 8.952C38.9018 8.992 38.8338 9.012 38.7698 9.012C38.7378 9.012 38.7058 9.008 38.6738 9C38.6418 9 38.6138 9 38.5898 9C38.6618 8.728 38.7938 8.356 38.9858 7.884C39.1858 7.404 39.4218 6.836 39.6938 6.18C39.7498 6.052 39.8058 5.92 39.8618 5.784C39.9178 5.64 39.9818 5.492 40.0538 5.34H38.5418C38.3978 5.588 38.2258 5.912 38.0258 6.312C37.8338 6.704 37.6618 7.084 37.5098 7.452C37.4938 7.5 37.4618 7.588 37.4138 7.716C37.3658 7.836 37.3218 7.972 37.2818 8.124C37.2498 8.268 37.2338 8.404 37.2338 8.532C37.2338 8.636 37.2538 8.724 37.2938 8.796C37.3338 8.868 37.4058 8.904 37.5098 8.904C37.6298 8.904 37.7498 8.864 37.8698 8.784C37.9898 8.696 38.0818 8.6 38.1458 8.496C38.1698 8.464 38.1858 8.448 38.1938 8.448C38.2178 8.448 38.2298 8.472 38.2298 8.52C38.2298 8.592 38.2018 8.656 38.1458 8.712C38.0578 8.808 37.9498 8.896 37.8218 8.976C37.7018 9.048 37.5658 9.084 37.4138 9.084ZM40.6658 5.256C41.1458 4.904 41.5778 4.548 41.9618 4.188C42.3458 3.828 42.7338 3.44 43.1258 3.024C43.2378 2.904 43.3818 2.744 43.5578 2.544C43.7418 2.344 43.9218 2.128 44.0978 1.896C44.2738 1.664 44.4058 1.44 44.4938 1.224C44.5738 1.04 44.6138 0.884 44.6138 0.756C44.6138 0.539999 44.5138 0.431999 44.3138 0.431999C44.2098 0.431999 44.0938 0.464 43.9658 0.528C43.8378 0.592 43.7178 0.68 43.6058 0.792C43.2218 1.152 42.8458 1.592 42.4778 2.112C42.1178 2.624 41.7818 3.156 41.4698 3.708C41.1658 4.26 40.8978 4.776 40.6658 5.256ZM47.9903 10.224C47.3903 10.224 46.8863 10.12 46.4783 9.912C46.0783 9.712 45.7743 9.44 45.5663 9.096C45.3663 8.76 45.2663 8.384 45.2663 7.968C45.2663 7.648 45.3223 7.32 45.4343 6.984C45.5543 6.648 45.7303 6.316 45.9623 5.988C46.2023 5.66 46.4983 5.36 46.8503 5.088C47.2023 4.816 47.5863 4.6 48.0023 4.44C48.4183 4.272 48.8303 4.188 49.2383 4.188C49.6463 4.188 49.9463 4.272 50.1383 4.44C50.3383 4.6 50.4383 4.808 50.4383 5.064C50.4383 5.216 50.4023 5.384 50.3303 5.568C50.2583 5.752 50.1463 5.936 49.9943 6.12C49.7863 6.384 49.5303 6.62 49.2263 6.828C48.9223 7.028 48.5983 7.188 48.2543 7.308C47.9183 7.42 47.5823 7.476 47.2463 7.476C47.1903 7.476 47.1383 7.476 47.0903 7.476C47.0423 7.468 46.9903 7.46 46.9343 7.452C46.9023 7.444 46.8863 7.424 46.8863 7.392C46.8943 7.352 46.9143 7.336 46.9463 7.344C47.2743 7.368 47.6223 7.316 47.9903 7.188C48.3663 7.06 48.7223 6.884 49.0583 6.66C49.3943 6.436 49.6583 6.192 49.8503 5.928C50.0743 5.616 50.1863 5.328 50.1863 5.064C50.1863 4.872 50.1183 4.712 49.9823 4.584C49.8463 4.448 49.6303 4.38 49.3343 4.38C48.9423 4.38 48.5623 4.464 48.1943 4.632C47.8263 4.792 47.4823 5.004 47.1623 5.268C46.8503 5.532 46.5823 5.82 46.3583 6.132C46.1423 6.428 45.9783 6.74 45.8663 7.068C45.7543 7.396 45.6983 7.712 45.6983 8.016C45.6983 8.368 45.7783 8.696 45.9383 9C46.0983 9.296 46.3423 9.532 46.6703 9.708C46.9983 9.892 47.4183 9.984 47.9303 9.984C48.4983 9.984 49.0143 9.884 49.4783 9.684C49.9423 9.492 50.3423 9.228 50.6783 8.892C51.0143 8.548 51.2703 8.16 51.4463 7.728C51.6303 7.288 51.7223 6.824 51.7223 6.336C51.7223 6.128 51.7143 5.928 51.6983 5.736C51.6903 5.536 51.6543 5.344 51.5903 5.16C51.5023 4.88 51.3903 4.588 51.2543 4.284C51.1183 3.98 50.9943 3.668 50.8823 3.348C50.7783 3.028 50.7263 2.704 50.7263 2.376C50.7263 2.08 50.7863 1.784 50.9063 1.488C51.0663 1.128 51.2983 0.84 51.6023 0.624C51.9143 0.4 52.2783 0.288 52.6943 0.288C52.8463 0.288 52.9983 0.312 53.1503 0.36C53.3103 0.4 53.4463 0.472 53.5583 0.576C53.6703 0.68 53.7263 0.824 53.7263 1.008C53.7263 1.136 53.6863 1.228 53.6063 1.284C53.5263 1.34 53.4423 1.368 53.3543 1.368C53.3063 1.368 53.2743 1.364 53.2583 1.356L53.2943 1.116C53.2943 0.916 53.2343 0.768 53.1143 0.672C53.0023 0.568 52.8543 0.516 52.6703 0.516C52.4463 0.516 52.2263 0.58 52.0103 0.707999C51.7943 0.827999 51.6343 0.983999 51.5303 1.176C51.3703 1.472 51.2903 1.776 51.2903 2.088C51.2903 2.36 51.3343 2.628 51.4223 2.892C51.5183 3.148 51.6303 3.4 51.7583 3.648C51.8943 3.888 52.0183 4.12 52.1303 4.344C52.4503 4.952 52.6103 5.588 52.6103 6.252C52.6103 6.828 52.4903 7.36 52.2503 7.848C52.0103 8.328 51.6783 8.744 51.2543 9.096C50.8303 9.456 50.3383 9.732 49.7783 9.924C49.2263 10.124 48.6303 10.224 47.9903 10.224ZM55.7096 9.084C55.4536 9.084 55.2776 9.004 55.1816 8.844C55.0856 8.676 55.0376 8.492 55.0376 8.292C55.0376 8.252 55.0416 8.184 55.0496 8.088C55.0656 7.984 55.0816 7.888 55.0976 7.8C54.9856 7.952 54.8496 8.12 54.6896 8.304C54.5376 8.488 54.3816 8.644 54.2216 8.772C53.9656 8.98 53.7336 9.084 53.5256 9.084C53.3256 9.084 53.1696 9 53.0576 8.832C52.9536 8.664 52.9016 8.452 52.9016 8.196C52.9016 7.868 52.9736 7.536 53.1176 7.2C53.2616 6.864 53.4496 6.548 53.6816 6.252C53.9216 5.948 54.1856 5.688 54.4736 5.472C54.6416 5.352 54.8456 5.256 55.0856 5.184C55.3336 5.104 55.5816 5.064 55.8296 5.064C56.1096 5.064 56.3536 5.108 56.5616 5.196C56.7776 5.276 56.9256 5.392 57.0056 5.544C56.8376 5.76 56.6656 6.028 56.4896 6.348C56.3136 6.66 56.1616 6.944 56.0336 7.2C55.9456 7.376 55.8496 7.596 55.7456 7.86C55.6416 8.116 55.5896 8.336 55.5896 8.52C55.5896 8.6 55.6096 8.68 55.6496 8.76C55.6896 8.84 55.7656 8.88 55.8776 8.88C56.0056 8.88 56.1296 8.832 56.2496 8.736C56.3696 8.64 56.4696 8.544 56.5496 8.448C56.7336 8.248 56.9016 8.028 57.0536 7.788C57.2056 7.548 57.3576 7.292 57.5096 7.02C57.5336 6.988 57.5576 6.972 57.5816 6.972C57.6136 6.972 57.6296 6.996 57.6296 7.044C57.6296 7.084 57.6216 7.116 57.6056 7.14C57.4696 7.404 57.3176 7.668 57.1496 7.932C56.9816 8.196 56.7816 8.444 56.5496 8.676C56.4376 8.788 56.3056 8.884 56.1536 8.964C56.0016 9.044 55.8536 9.084 55.7096 9.084ZM53.7896 8.712C53.9416 8.712 54.1056 8.632 54.2816 8.472C54.4656 8.304 54.6416 8.104 54.8096 7.872C54.9856 7.632 55.1416 7.404 55.2776 7.188C55.4216 6.964 55.5336 6.792 55.6136 6.672C55.7816 6.408 55.9376 6.188 56.0816 6.012C56.2256 5.836 56.4496 5.7 56.7536 5.604C56.7696 5.604 56.7816 5.604 56.7896 5.604C56.8056 5.596 56.8216 5.592 56.8376 5.592C56.7656 5.48 56.6456 5.396 56.4776 5.34C56.3096 5.284 56.1456 5.256 55.9856 5.256C55.7376 5.256 55.4976 5.324 55.2656 5.46C55.0336 5.596 54.8216 5.768 54.6296 5.976C54.4456 6.192 54.2656 6.428 54.0896 6.684C53.9136 6.94 53.7696 7.2 53.6576 7.464C53.5536 7.728 53.5016 7.98 53.5016 8.22C53.5016 8.348 53.5216 8.464 53.5616 8.568C53.6096 8.664 53.6856 8.712 53.7896 8.712ZM61.9187 9.072C61.6787 9.072 61.4947 9 61.3667 8.856C61.2387 8.704 61.1747 8.516 61.1747 8.292C61.1747 8.044 61.2387 7.796 61.3667 7.548C61.4947 7.292 61.6387 7.044 61.7987 6.804C61.9667 6.564 62.1147 6.336 62.2427 6.12C62.3707 5.904 62.4347 5.712 62.4347 5.544C62.4347 5.48 62.4187 5.424 62.3867 5.376C62.3547 5.32 62.2947 5.292 62.2067 5.292C61.9507 5.292 61.6827 5.412 61.4027 5.652C61.1307 5.884 60.8667 6.184 60.6107 6.552C60.3547 6.92 60.1227 7.304 59.9147 7.704C59.7147 8.104 59.5587 8.472 59.4467 8.808C59.3187 8.776 59.2307 8.728 59.1827 8.664C59.1427 8.592 59.1227 8.516 59.1227 8.436C59.1227 8.308 59.1387 8.184 59.1707 8.064C59.2107 7.944 59.2707 7.796 59.3507 7.62C59.4307 7.444 59.5347 7.22 59.6627 6.948C59.7907 6.668 59.9427 6.308 60.1187 5.868C60.1427 5.804 60.1587 5.748 60.1667 5.7C60.1747 5.652 60.1787 5.608 60.1787 5.568C60.1787 5.384 60.1027 5.292 59.9507 5.292C59.7587 5.292 59.5627 5.372 59.3627 5.532C59.1627 5.684 58.9667 5.888 58.7747 6.144C58.5907 6.4 58.4147 6.676 58.2467 6.972C58.0787 7.268 57.9267 7.56 57.7907 7.848C57.6547 8.128 57.5427 8.372 57.4547 8.58C57.3747 8.764 57.2787 8.884 57.1667 8.94C57.0547 8.988 56.9467 9.012 56.8427 9.012C56.8107 9.012 56.7707 9.008 56.7227 9C56.6827 9 56.6427 9 56.6027 9C56.7627 8.68 56.9307 8.332 57.1067 7.956C57.2907 7.572 57.4587 7.188 57.6107 6.804C57.7627 6.42 57.8867 6.052 57.9827 5.7C58.0787 5.348 58.1267 5.044 58.1267 4.788C58.1267 4.756 58.1227 4.732 58.1147 4.716C58.1147 4.7 58.1147 4.684 58.1147 4.668C58.1147 4.644 58.1227 4.632 58.1387 4.632C58.2187 4.632 58.2827 4.684 58.3307 4.788C58.3787 4.884 58.4107 4.996 58.4267 5.124C58.4507 5.244 58.4627 5.34 58.4627 5.412C58.4627 5.612 58.4387 5.82 58.3907 6.036C58.3427 6.244 58.2867 6.42 58.2227 6.564C58.5267 6.156 58.8387 5.808 59.1587 5.52C59.4867 5.232 59.8107 5.088 60.1307 5.088C60.3467 5.088 60.5027 5.132 60.5987 5.22C60.6947 5.308 60.7427 5.432 60.7427 5.592C60.7427 5.704 60.7227 5.816 60.6827 5.928C60.6507 6.04 60.5947 6.192 60.5147 6.384C60.8187 5.968 61.1147 5.648 61.4027 5.424C61.6987 5.2 61.9907 5.088 62.2787 5.088C62.5107 5.088 62.6827 5.14 62.7947 5.244C62.9147 5.348 62.9747 5.488 62.9747 5.664C62.9747 5.856 62.9107 6.084 62.7827 6.348C62.6627 6.604 62.5227 6.872 62.3627 7.152C62.2027 7.424 62.0587 7.684 61.9307 7.932C61.8107 8.172 61.7507 8.372 61.7507 8.532C61.7507 8.62 61.7707 8.7 61.8107 8.772C61.8507 8.844 61.9227 8.88 62.0267 8.88C62.1627 8.88 62.2907 8.836 62.4107 8.748C62.5387 8.652 62.6467 8.552 62.7347 8.448C62.9187 8.248 63.0867 8.028 63.2387 7.788C63.3987 7.54 63.5547 7.28 63.7067 7.008C63.7307 6.976 63.7467 6.96 63.7547 6.96C63.7867 6.96 63.8027 6.996 63.8027 7.068C63.8027 7.116 63.7947 7.152 63.7787 7.176C63.6347 7.44 63.4827 7.7 63.3227 7.956C63.1627 8.204 62.9667 8.444 62.7347 8.676C62.6307 8.78 62.5107 8.872 62.3747 8.952C62.2387 9.032 62.0867 9.072 61.9187 9.072ZM63.9545 9.072C63.7305 9.072 63.5665 9 63.4625 8.856C63.3585 8.704 63.3065 8.52 63.3065 8.304C63.3065 8.24 63.3105 8.176 63.3185 8.112C63.3345 8.04 63.3505 7.968 63.3665 7.896C63.4545 7.576 63.5905 7.22 63.7745 6.828C63.9665 6.428 64.1505 6.072 64.3265 5.76C64.4305 5.584 64.5265 5.46 64.6145 5.388C64.7025 5.308 64.7985 5.252 64.9025 5.22C65.0065 5.18 65.1305 5.136 65.2745 5.088C65.3145 5.072 65.3545 5.06 65.3945 5.052C65.4345 5.044 65.4785 5.036 65.5265 5.028C65.3665 5.188 65.2025 5.38 65.0345 5.604C64.8745 5.828 64.6985 6.136 64.5065 6.528C64.4025 6.736 64.2985 6.968 64.1945 7.224C64.0985 7.48 64.0145 7.72 63.9425 7.944C63.8705 8.168 63.8305 8.344 63.8225 8.472C63.8145 8.624 63.8345 8.732 63.8825 8.796C63.9305 8.86 63.9945 8.892 64.0745 8.892C64.2105 8.892 64.3385 8.844 64.4585 8.748C64.5865 8.652 64.6985 8.552 64.7945 8.448C64.9705 8.248 65.1345 8.028 65.2865 7.788C65.4465 7.548 65.6025 7.292 65.7545 7.02C65.7785 6.988 65.7985 6.972 65.8145 6.972C65.8465 6.972 65.8625 6.996 65.8625 7.044C65.8625 7.084 65.8545 7.116 65.8385 7.14C65.6945 7.404 65.5425 7.668 65.3825 7.932C65.2225 8.196 65.0265 8.444 64.7945 8.676C64.6905 8.78 64.5665 8.872 64.4225 8.952C64.2865 9.032 64.1305 9.072 63.9545 9.072ZM65.4185 4.356C65.3305 4.356 65.2545 4.324 65.1905 4.26C65.1345 4.196 65.1065 4.12 65.1065 4.032C65.1065 3.92 65.1505 3.82 65.2385 3.732C65.3345 3.644 65.4385 3.592 65.5505 3.576C65.6385 3.576 65.7105 3.608 65.7665 3.672C65.8305 3.728 65.8625 3.804 65.8625 3.9C65.8625 4.004 65.8185 4.108 65.7305 4.212C65.6425 4.308 65.5385 4.356 65.4185 4.356ZM68.033 9.108C67.745 9.108 67.525 9.024 67.373 8.856C67.221 8.688 67.113 8.484 67.049 8.244C66.993 7.996 66.965 7.76 66.965 7.536C66.965 7.328 66.985 7.116 67.025 6.9C67.073 6.684 67.157 6.5 67.277 6.348C67.349 6.26 67.433 6.192 67.529 6.144C67.633 6.096 67.677 6.1 67.661 6.156C67.645 6.188 67.637 6.22 67.637 6.252C67.645 6.316 67.681 6.368 67.745 6.408C67.809 6.44 67.889 6.456 67.985 6.456C68.081 6.456 68.181 6.44 68.285 6.408C68.397 6.376 68.497 6.328 68.585 6.264C68.689 6.192 68.781 6.1 68.861 5.988C68.941 5.868 68.981 5.744 68.981 5.616C68.981 5.488 68.945 5.4 68.873 5.352C68.809 5.304 68.733 5.28 68.645 5.28C68.605 5.28 68.561 5.284 68.513 5.292C68.465 5.3 68.421 5.312 68.381 5.328C68.125 5.408 67.869 5.56 67.613 5.784C67.365 6 67.129 6.252 66.905 6.54C66.689 6.828 66.493 7.116 66.317 7.404C66.205 7.596 66.085 7.82 65.957 8.076C65.829 8.324 65.745 8.524 65.705 8.676C65.665 8.82 65.597 8.912 65.501 8.952C65.413 8.992 65.321 9.008 65.225 9C65.129 9 65.053 9 64.997 9C65.037 8.888 65.089 8.736 65.153 8.544C65.225 8.352 65.297 8.16 65.369 7.968C65.441 7.768 65.501 7.612 65.549 7.5C65.757 6.988 65.981 6.44 66.221 5.856C66.469 5.272 66.733 4.692 67.013 4.116C67.301 3.532 67.613 2.984 67.949 2.472C68.293 1.96 68.661 1.52 69.053 1.152C69.453 0.776 69.885 0.503999 70.349 0.335999C70.389 0.327999 70.433 0.319999 70.481 0.312C70.529 0.304 70.577 0.3 70.625 0.3C70.753 0.3 70.861 0.328 70.949 0.383999C71.061 0.455999 71.117 0.579999 71.117 0.756C71.117 0.892 71.081 1.052 71.009 1.236C70.881 1.556 70.673 1.9 70.385 2.268C70.097 2.636 69.757 3.012 69.365 3.396C68.901 3.836 68.457 4.232 68.033 4.584C67.609 4.928 67.257 5.204 66.977 5.412C66.809 5.78 66.669 6.108 66.557 6.396C66.445 6.676 66.369 6.872 66.329 6.984C66.505 6.728 66.701 6.476 66.917 6.228C67.133 5.972 67.353 5.76 67.577 5.592C68.057 5.232 68.509 5.052 68.933 5.052C69.173 5.052 69.337 5.124 69.425 5.268C69.449 5.3 69.465 5.34 69.473 5.388C69.481 5.436 69.485 5.48 69.485 5.52C69.485 5.672 69.445 5.824 69.365 5.976C69.285 6.12 69.189 6.232 69.077 6.312C68.949 6.408 68.797 6.488 68.621 6.552C68.453 6.608 68.289 6.636 68.129 6.636C67.961 6.636 67.817 6.6 67.697 6.528L67.601 6.468C67.585 6.588 67.569 6.728 67.553 6.888C67.537 7.04 67.529 7.2 67.529 7.368C67.529 7.448 67.529 7.528 67.529 7.608C67.537 7.68 67.545 7.756 67.553 7.836C67.569 7.964 67.593 8.112 67.625 8.28C67.665 8.44 67.729 8.58 67.817 8.7C67.905 8.82 68.021 8.884 68.165 8.892C68.301 8.892 68.433 8.844 68.561 8.748C68.689 8.652 68.797 8.552 68.885 8.448C69.069 8.248 69.225 8.048 69.353 7.848C69.489 7.64 69.657 7.352 69.857 6.984C69.873 6.96 69.885 6.948 69.893 6.948C69.925 6.948 69.941 6.984 69.941 7.056C69.941 7.104 69.929 7.152 69.905 7.2C69.777 7.44 69.633 7.692 69.473 7.956C69.313 8.22 69.117 8.468 68.885 8.7C68.781 8.804 68.653 8.9 68.501 8.988C68.357 9.068 68.201 9.108 68.033 9.108ZM67.085 5.172C67.541 4.828 67.953 4.484 68.321 4.14C68.689 3.796 69.065 3.424 69.449 3.024C69.561 2.904 69.705 2.744 69.881 2.544C70.065 2.344 70.241 2.128 70.409 1.896C70.585 1.664 70.717 1.44 70.805 1.224C70.885 1.032 70.925 0.875999 70.925 0.756C70.925 0.539999 70.829 0.431999 70.637 0.431999C70.533 0.431999 70.417 0.464 70.289 0.528C70.161 0.592 70.041 0.68 69.929 0.792C69.553 1.144 69.189 1.572 68.837 2.076C68.485 2.58 68.161 3.104 67.865 3.648C67.569 4.184 67.309 4.692 67.085 5.172ZM70.0948 9.096C69.9268 9.096 69.7708 9.064 69.6268 9C69.4908 8.928 69.3788 8.808 69.2908 8.64C69.2268 8.496 69.1948 8.34 69.1948 8.172C69.1948 7.996 69.2268 7.832 69.2908 7.68C69.3548 7.544 69.4268 7.424 69.5068 7.32C69.5868 7.216 69.6748 7.156 69.7708 7.14C69.8428 6.98 69.9508 6.768 70.0948 6.504C70.2468 6.24 70.4148 5.976 70.5988 5.712C70.7908 5.448 70.9708 5.236 71.1388 5.076C71.1788 5.036 71.2468 4.972 71.3428 4.884C71.4468 4.788 71.5628 4.696 71.6908 4.608C71.8268 4.52 71.9508 4.468 72.0628 4.452C72.0868 4.444 72.1188 4.44 72.1588 4.44C72.2548 4.44 72.3268 4.464 72.3748 4.512C72.4228 4.56 72.4468 4.616 72.4468 4.68C72.4468 4.744 72.4228 4.808 72.3748 4.872C72.3268 4.936 72.2508 4.988 72.1468 5.028C72.1068 5.036 72.0468 5.048 71.9668 5.064C71.8948 5.08 71.7868 5.088 71.6428 5.088C71.5868 5.168 71.5588 5.28 71.5588 5.424C71.5588 5.584 71.5828 5.764 71.6308 5.964C71.6868 6.164 71.7388 6.36 71.7868 6.552C71.8428 6.736 71.8708 6.892 71.8708 7.02C71.8868 7.316 71.8388 7.616 71.7268 7.92C71.6228 8.216 71.4548 8.468 71.2228 8.676L71.0548 8.796C71.0788 8.804 71.1028 8.812 71.1268 8.82C71.1508 8.82 71.1748 8.82 71.1988 8.82C71.3348 8.82 71.4868 8.78 71.6548 8.7C71.8228 8.612 71.9708 8.504 72.0988 8.376C72.2908 8.192 72.4548 7.996 72.5908 7.788C72.7348 7.58 72.8668 7.364 72.9868 7.14C72.9948 7.108 73.0148 7.092 73.0468 7.092C73.0868 7.092 73.1068 7.124 73.1068 7.188C73.1068 7.22 73.0948 7.256 73.0708 7.296C72.9508 7.52 72.8028 7.756 72.6268 8.004C72.4588 8.244 72.2828 8.448 72.0988 8.616C71.9548 8.744 71.7988 8.84 71.6308 8.904C71.4708 8.96 71.3348 8.988 71.2228 8.988C71.1428 8.988 71.0788 8.98 71.0308 8.964C70.9828 8.948 70.9388 8.924 70.8988 8.892C70.7868 8.948 70.6588 8.996 70.5148 9.036C70.3788 9.076 70.2388 9.096 70.0948 9.096ZM70.5508 8.784C70.7108 8.672 70.8348 8.528 70.9228 8.352C71.0188 8.176 71.0908 7.988 71.1388 7.788C71.2028 7.548 71.2388 7.3 71.2468 7.044C71.2628 6.788 71.2708 6.556 71.2708 6.348V5.928C71.2708 5.76 71.2908 5.588 71.3308 5.412C71.3788 5.236 71.4268 5.128 71.4748 5.088C71.3548 5.136 71.2228 5.244 71.0788 5.412C70.9348 5.572 70.7908 5.764 70.6468 5.988C70.5028 6.204 70.3708 6.416 70.2508 6.624C70.1388 6.832 70.0508 7.004 69.9868 7.14C70.1388 7.132 70.2428 7.176 70.2988 7.272C70.3548 7.36 70.3708 7.424 70.3468 7.464C70.2828 7.448 70.2388 7.44 70.2148 7.44C70.0948 7.44 69.9828 7.484 69.8788 7.572C69.7748 7.652 69.6868 7.772 69.6148 7.932C69.5428 8.084 69.5068 8.232 69.5068 8.376C69.5068 8.568 69.5628 8.708 69.6748 8.796C69.7868 8.884 69.9188 8.928 70.0708 8.928C70.2468 8.928 70.4068 8.88 70.5508 8.784ZM75.2498 9.084C74.9778 9.084 74.7858 9.004 74.6738 8.844C74.5698 8.684 74.5178 8.512 74.5178 8.328C74.5178 8.248 74.5258 8.172 74.5418 8.1C74.5578 8.02 74.5778 7.944 74.6018 7.872C74.7378 7.52 74.9258 7.184 75.1658 6.864C75.4058 6.544 75.6058 6.212 75.7658 5.868C75.8218 5.764 75.8498 5.668 75.8498 5.58C75.8498 5.484 75.8218 5.412 75.7658 5.364C75.7098 5.316 75.6498 5.292 75.5858 5.292C75.4338 5.292 75.2658 5.36 75.0818 5.496C74.9058 5.624 74.7338 5.788 74.5658 5.988C74.4138 6.164 74.2578 6.368 74.0978 6.6C73.9378 6.824 73.7858 7.064 73.6418 7.32C73.5058 7.552 73.3658 7.796 73.2218 8.052C73.0778 8.3 72.9618 8.512 72.8738 8.688C72.8098 8.824 72.7418 8.912 72.6698 8.952C72.5978 8.992 72.5298 9.012 72.4658 9.012C72.4338 9.012 72.4018 9.008 72.3698 9C72.3378 9 72.3098 9 72.2858 9C72.3578 8.728 72.4898 8.356 72.6818 7.884C72.8818 7.404 73.1178 6.836 73.3898 6.18C73.5418 5.828 73.7218 5.424 73.9298 4.968C74.1378 4.504 74.3738 4.032 74.6378 3.552C74.9018 3.064 75.1938 2.604 75.5138 2.172C75.8338 1.732 76.1778 1.348 76.5458 1.02C76.9218 0.692 77.3178 0.464 77.7338 0.335999C77.7818 0.327999 77.8298 0.319999 77.8778 0.312C77.9258 0.304 77.9738 0.3 78.0218 0.3C78.1418 0.3 78.2458 0.328 78.3338 0.383999C78.4458 0.455999 78.5018 0.583999 78.5018 0.767999C78.5018 0.896 78.4658 1.052 78.3938 1.236C78.2658 1.556 78.0538 1.9 77.7578 2.268C77.4698 2.636 77.1298 3.012 76.7378 3.396C76.2498 3.868 75.7818 4.284 75.3338 4.644C74.8858 5.004 74.5258 5.288 74.2538 5.496C74.0938 5.84 73.9618 6.14 73.8577 6.396C73.7538 6.644 73.6858 6.824 73.6538 6.936C73.7818 6.744 73.9258 6.536 74.0858 6.312C74.2538 6.08 74.4018 5.9 74.5298 5.772C74.7138 5.588 74.8978 5.432 75.0818 5.304C75.2658 5.176 75.4458 5.104 75.6217 5.088C75.8938 5.064 76.0898 5.1 76.2098 5.196C76.3298 5.284 76.3898 5.416 76.3898 5.592C76.3898 5.768 76.3418 5.964 76.2458 6.18C76.1418 6.428 76.0178 6.676 75.8738 6.924C75.7298 7.172 75.5978 7.412 75.4778 7.644C75.4458 7.708 75.3858 7.832 75.2978 8.016C75.2178 8.192 75.1658 8.36 75.1418 8.52C75.1418 8.528 75.1378 8.54 75.1298 8.556C75.1298 8.572 75.1298 8.588 75.1298 8.604C75.1298 8.692 75.1538 8.76 75.2018 8.808C75.2498 8.848 75.3058 8.868 75.3698 8.868C75.5058 8.868 75.6338 8.824 75.7538 8.736C75.8738 8.648 75.9778 8.552 76.0658 8.448C76.2498 8.248 76.4178 8.028 76.5698 7.788C76.7218 7.548 76.8738 7.292 77.0258 7.02C77.0498 6.988 77.0738 6.972 77.0978 6.972C77.1298 6.972 77.1458 6.996 77.1458 7.044C77.1458 7.084 77.1378 7.116 77.1218 7.14C76.9778 7.404 76.8218 7.668 76.6538 7.932C76.4938 8.196 76.2978 8.444 76.0658 8.676C75.9618 8.78 75.8418 8.876 75.7058 8.964C75.5698 9.044 75.4178 9.084 75.2498 9.084ZM74.3618 5.256C74.8418 4.904 75.2738 4.548 75.6578 4.188C76.0418 3.828 76.4298 3.44 76.8218 3.024C76.9338 2.904 77.0778 2.744 77.2538 2.544C77.4378 2.344 77.6178 2.128 77.7938 1.896C77.9698 1.664 78.1018 1.44 78.1898 1.224C78.2698 1.04 78.3098 0.884 78.3098 0.756C78.3098 0.539999 78.2098 0.431999 78.0098 0.431999C77.9058 0.431999 77.7898 0.464 77.6618 0.528C77.5338 0.592 77.4138 0.68 77.3018 0.792C76.9178 1.152 76.5418 1.592 76.1738 2.112C75.8138 2.624 75.4778 3.156 75.1658 3.708C74.8618 4.26 74.5938 4.776 74.3618 5.256ZM79.5104 9.084C79.2544 9.084 79.0784 9.004 78.9824 8.844C78.8864 8.676 78.8384 8.492 78.8384 8.292C78.8384 8.252 78.8424 8.184 78.8504 8.088C78.8664 7.984 78.8824 7.888 78.8984 7.8C78.7864 7.952 78.6504 8.12 78.4904 8.304C78.3384 8.488 78.1824 8.644 78.0224 8.772C77.7664 8.98 77.5344 9.084 77.3264 9.084C77.1264 9.084 76.9704 9 76.8584 8.832C76.7544 8.664 76.7024 8.452 76.7024 8.196C76.7024 7.868 76.7744 7.536 76.9184 7.2C77.0624 6.864 77.2504 6.548 77.4824 6.252C77.7224 5.948 77.9864 5.688 78.2744 5.472C78.4424 5.352 78.6464 5.256 78.8864 5.184C79.1344 5.104 79.3824 5.064 79.6304 5.064C79.9104 5.064 80.1544 5.108 80.3624 5.196C80.5784 5.276 80.7264 5.392 80.8064 5.544C80.6384 5.76 80.4664 6.028 80.2904 6.348C80.1144 6.66 79.9624 6.944 79.8344 7.2C79.7464 7.376 79.6504 7.596 79.5464 7.86C79.4424 8.116 79.3904 8.336 79.3904 8.52C79.3904 8.6 79.4104 8.68 79.4504 8.76C79.4904 8.84 79.5664 8.88 79.6784 8.88C79.8064 8.88 79.9304 8.832 80.0504 8.736C80.1704 8.64 80.2704 8.544 80.3504 8.448C80.5344 8.248 80.7024 8.028 80.8544 7.788C81.0064 7.548 81.1584 7.292 81.3104 7.02C81.3344 6.988 81.3584 6.972 81.3824 6.972C81.4144 6.972 81.4304 6.996 81.4304 7.044C81.4304 7.084 81.4224 7.116 81.4064 7.14C81.2704 7.404 81.1184 7.668 80.9504 7.932C80.7824 8.196 80.5824 8.444 80.3504 8.676C80.2384 8.788 80.1064 8.884 79.9544 8.964C79.8024 9.044 79.6544 9.084 79.5104 9.084ZM77.5904 8.712C77.7424 8.712 77.9064 8.632 78.0824 8.472C78.2664 8.304 78.4424 8.104 78.6104 7.872C78.7864 7.632 78.9424 7.404 79.0784 7.188C79.2224 6.964 79.3344 6.792 79.4144 6.672C79.5824 6.408 79.7384 6.188 79.8824 6.012C80.0264 5.836 80.2504 5.7 80.5544 5.604C80.5704 5.604 80.5824 5.604 80.5904 5.604C80.6064 5.596 80.6224 5.592 80.6384 5.592C80.5664 5.48 80.4464 5.396 80.2784 5.34C80.1104 5.284 79.9464 5.256 79.7864 5.256C79.5384 5.256 79.2984 5.324 79.0664 5.46C78.8344 5.596 78.6224 5.768 78.4304 5.976C78.2464 6.192 78.0664 6.428 77.8904 6.684C77.7144 6.94 77.5704 7.2 77.4584 7.464C77.3544 7.728 77.3024 7.98 77.3024 8.22C77.3024 8.348 77.3224 8.464 77.3624 8.568C77.4104 8.664 77.4864 8.712 77.5904 8.712Z" fill="white"/>
</svg>
