<svg width="99" height="14" viewBox="0 0 99 14" fill="none" xmlns="http://www.w3.org/2000/svg">
<path d="M3.396 10.056C2.588 10.056 1.912 9.896 1.368 9.576C0.688 9.184 0.348 8.616 0.348 7.872C0.348 7.12 0.684 6.452 1.356 5.868C1.988 5.308 2.688 5.028 3.456 5.028C3.784 5.028 3.948 5.06 3.948 5.124C3.948 5.156 3.828 5.168 3.588 5.16C2.812 5.16 2.168 5.392 1.656 5.856C1.112 6.352 0.84 6.976 0.84 7.728C0.84 8.4 1.064 8.936 1.512 9.336C1.96 9.736 2.528 9.936 3.216 9.936C3.792 9.936 4.44 9.796 5.16 9.516C6.416 9.004 7.044 8.216 7.044 7.152C7.044 6.528 6.756 5.996 6.18 5.556L4.584 4.524C4.016 4.1 3.732 3.628 3.732 3.108C3.732 2.732 3.868 2.396 4.14 2.1C3.884 2.124 3.672 2.248 3.504 2.472C3.336 2.688 3.252 2.928 3.252 3.192C3.252 3.752 3.508 4.24 4.02 4.656L5.496 5.664C6.04 6.08 6.34 6.56 6.396 7.104C6.556 6.944 6.68 6.864 6.768 6.864C6.832 6.864 6.864 6.912 6.864 7.008C6.864 7.288 6.668 7.588 6.276 7.908C6.1 8.372 5.748 8.792 5.22 9.168C4.708 9.536 4.2 9.72 3.696 9.72C3.656 9.72 3.636 9.708 3.636 9.684C3.636 9.636 3.668 9.612 3.732 9.612L4.188 9.54C4.564 9.436 4.92 9.244 5.256 8.964C5.592 8.676 5.84 8.356 6 8.004C5.84 7.82 5.76 7.604 5.76 7.356C5.76 7.084 5.828 6.948 5.964 6.948C6.028 6.948 6.088 6.976 6.144 7.032C6.112 6.776 6.02 6.532 5.868 6.3C5.724 6.068 5.516 5.86 5.244 5.676L3.828 4.704C3.332 4.28 3.084 3.78 3.084 3.204C3.084 2.884 3.188 2.608 3.396 2.376C3.612 2.136 3.88 2.016 4.2 2.016H4.224C4.816 1.448 5.612 1.164 6.612 1.164C7.476 1.164 8.076 1.36 8.412 1.752C8.532 1.88 8.592 2.024 8.592 2.184C8.592 2.456 8.416 2.66 8.064 2.796C7.816 2.892 7.524 2.94 7.188 2.94C7.028 2.94 6.86 2.928 6.684 2.904C6.508 2.88 6.32 2.848 6.12 2.808C5.664 2.696 5.336 2.564 5.136 2.412C5.12 2.396 5.112 2.384 5.112 2.376C5.112 2.352 5.124 2.34 5.148 2.34C5.172 2.34 5.188 2.344 5.196 2.352C5.668 2.656 6.32 2.808 7.152 2.808C7.416 2.808 7.656 2.764 7.872 2.676C8.152 2.564 8.292 2.396 8.292 2.172C8.292 1.868 8.072 1.64 7.632 1.488C7.296 1.376 6.956 1.32 6.612 1.32C5.564 1.32 4.848 1.656 4.464 2.328C4.336 2.536 4.272 2.764 4.272 3.012C4.272 3.508 4.556 3.956 5.124 4.356L6.708 5.364C7.276 5.836 7.56 6.416 7.56 7.104C7.56 8.032 7.08 8.78 6.12 9.348C5.312 9.82 4.404 10.056 3.396 10.056ZM10.4279 9.048C10.2119 9.048 10.0439 8.936 9.92391 8.712C9.82791 8.528 9.77991 8.316 9.77991 8.076C9.77991 7.956 9.78791 7.824 9.80391 7.68C9.82791 7.528 9.85991 7.364 9.89991 7.188C9.39591 8.308 8.87591 8.868 8.33991 8.868C8.01191 8.868 7.84791 8.656 7.84791 8.232C7.84791 7.552 8.17591 6.848 8.83191 6.12C9.49591 5.376 10.1559 5.004 10.8119 5.004C11.1239 5.004 11.2799 5.14 11.2799 5.412C11.2799 5.748 11.0559 6.084 10.6079 6.42C10.3759 6.996 10.2599 7.588 10.2599 8.196C10.2599 8.652 10.3599 8.88 10.5599 8.88C10.8399 8.88 11.3199 8.376 11.9999 7.368C12.0479 7.304 12.0839 7.272 12.1079 7.272C12.1319 7.272 12.1439 7.288 12.1439 7.32C12.1439 7.36 12.1279 7.4 12.0959 7.44C11.3759 8.512 10.8199 9.048 10.4279 9.048ZM8.38791 8.496C8.89191 8.496 9.37991 7.936 9.85191 6.816C9.78791 6.832 9.72791 6.848 9.67191 6.864C9.62391 6.872 9.57991 6.876 9.53991 6.876C9.50791 6.876 9.49191 6.864 9.49191 6.84C9.49191 6.8 9.54791 6.76 9.65991 6.72L10.0319 6.504C10.0479 6.368 10.1319 6.192 10.2839 5.976C10.4359 5.752 10.5799 5.64 10.7159 5.64C10.7639 5.64 10.7879 5.676 10.7879 5.748C10.7879 5.804 10.7679 5.892 10.7279 6.012C10.8559 5.836 10.9199 5.664 10.9199 5.496C10.9199 5.312 10.8359 5.22 10.6679 5.22C10.2679 5.22 9.74391 5.616 9.09591 6.408C8.44791 7.184 8.12391 7.788 8.12391 8.22C8.12391 8.404 8.21191 8.496 8.38791 8.496ZM12.2771 8.964C12.2051 8.964 12.1691 8.932 12.1691 8.868C12.1691 8.86 12.1691 8.852 12.1691 8.844C12.1771 8.836 12.1851 8.824 12.1931 8.808V8.796C12.1931 8.756 12.2051 8.708 12.2291 8.652C12.3651 8.316 12.4851 7.856 12.5891 7.272C12.6131 7.136 12.6251 6.932 12.6251 6.66C12.6251 6.564 12.6091 6.416 12.5771 6.216C12.5531 6.016 12.5411 5.868 12.5411 5.772C12.5411 5.716 12.5731 5.676 12.6371 5.652L13.1651 5.508C13.2851 5.236 13.4851 5.1 13.7651 5.1C13.8851 5.1 13.9251 5.148 13.8851 5.244C13.9811 5.204 14.0531 5.172 14.1011 5.148C14.1491 5.124 14.1731 5.112 14.1731 5.112C14.1891 5.112 14.1971 5.124 14.1971 5.148C14.1971 5.22 14.0691 5.312 13.8131 5.424C13.6771 5.744 13.5131 6.148 13.3211 6.636C13.1371 7.116 12.9211 7.684 12.6731 8.34C12.9211 8.06 13.1331 7.808 13.3091 7.584C13.4931 7.36 13.6451 7.168 13.7651 7.008C13.8531 6.848 13.9731 6.652 14.1251 6.42C14.2771 6.18 14.4531 5.908 14.6531 5.604C14.7651 5.46 14.9331 5.388 15.1571 5.388C15.3811 5.388 15.4931 5.476 15.4931 5.652C15.4931 5.724 15.4011 5.992 15.2171 6.456C14.9931 7.008 14.8811 7.3 14.8811 7.332C15.0891 7.148 15.2851 6.944 15.4691 6.72C15.6611 6.488 15.8411 6.24 16.0091 5.976C16.0411 5.92 16.0731 5.892 16.1051 5.892C16.1291 5.892 16.1411 5.912 16.1411 5.952C16.1411 6.056 15.9291 6.4 15.5051 6.984C15.3771 7.16 15.2451 7.336 15.1091 7.512C14.9731 7.688 14.8371 7.864 14.7011 8.04C14.6771 8.08 14.6251 8.1 14.5451 8.1C14.4891 8.1 14.4611 8.072 14.4611 8.016C14.4611 7.976 14.4731 7.904 14.4971 7.8C14.5211 7.696 14.5531 7.556 14.5931 7.38L14.7851 6.624C14.8171 6.48 14.8411 6.344 14.8571 6.216C14.8731 6.088 14.8811 5.968 14.8811 5.856C14.6011 6.28 14.2331 6.756 13.7771 7.284L12.5891 8.64C12.5651 8.856 12.4611 8.964 12.2771 8.964ZM17.4971 8.784C17.0571 8.784 16.7131 8.492 16.4651 7.908C16.2651 7.46 16.1651 6.984 16.1651 6.48C16.1651 6.184 16.1971 5.964 16.2611 5.82C16.3091 5.732 16.4331 5.688 16.6331 5.688C16.7131 5.688 16.7611 5.708 16.7771 5.748C16.7611 5.748 16.7411 5.832 16.7171 6C16.6931 6.152 16.6811 6.32 16.6811 6.504C16.6811 6.912 16.7491 7.328 16.8851 7.752C17.0771 8.304 17.3451 8.58 17.6891 8.58C17.7451 8.58 17.8171 8.564 17.9051 8.532C18.0011 8.492 18.0691 8.472 18.1091 8.472C18.1491 8.472 18.1691 8.484 18.1691 8.508C18.1691 8.572 18.0771 8.636 17.8931 8.7C17.7251 8.756 17.5931 8.784 17.4971 8.784ZM12.8171 6.456C12.8571 6.32 12.9011 6.188 12.9491 6.06C12.9971 5.932 13.0411 5.816 13.0811 5.712L12.7571 5.82C12.7731 5.924 12.7851 6.028 12.7931 6.132C12.8091 6.236 12.8171 6.344 12.8171 6.456ZM19.4783 4.836C19.3183 4.836 19.2383 4.752 19.2383 4.584C19.2383 4.504 19.2863 4.408 19.3823 4.296C19.4863 4.176 19.5783 4.096 19.6583 4.056C19.9463 3.92 20.1183 3.852 20.1743 3.852C20.1983 3.852 20.2103 3.86 20.2103 3.876C20.2103 3.9 20.1183 4.016 19.9343 4.224C19.9183 4.24 19.8583 4.364 19.7543 4.596C19.6663 4.756 19.5743 4.836 19.4783 4.836ZM18.7583 8.688C18.3503 8.688 18.1463 8.484 18.1463 8.076C18.1463 7.772 18.2263 7.388 18.3863 6.924L18.1703 7.26C18.0663 7.436 17.9943 7.524 17.9543 7.524C17.9383 7.524 17.9303 7.512 17.9303 7.488C17.9303 7.424 17.9543 7.364 18.0023 7.308C18.1943 7.044 18.4063 6.664 18.6383 6.168C18.6623 6.104 18.6943 6.024 18.7343 5.928C18.7823 5.832 18.8383 5.724 18.9023 5.604C18.9423 5.532 19.0423 5.496 19.2023 5.496C19.3383 5.496 19.4062 5.536 19.4062 5.616C19.4062 5.704 19.3663 5.824 19.2863 5.976C19.2143 6.136 19.1463 6.228 19.0823 6.252C18.6663 7.084 18.4583 7.696 18.4583 8.088C18.4583 8.352 18.5463 8.484 18.7223 8.484C19.0103 8.484 19.3263 8.276 19.6702 7.86C20.0303 7.444 20.2063 7.236 20.1983 7.236C20.2143 7.236 20.2223 7.248 20.2223 7.272C20.2223 7.28 20.2143 7.308 20.1983 7.356C20.1263 7.484 20.0343 7.616 19.9223 7.752C19.8183 7.88 19.6983 8.016 19.5623 8.16C19.2103 8.512 18.9423 8.688 18.7583 8.688ZM23.1962 9.456C22.8202 9.456 22.3842 9.24 21.8882 8.808C21.5122 8.48 21.1762 8.104 20.8802 7.68L20.4242 8.424C20.2322 8.728 20.0482 8.952 19.8722 9.096C19.8082 9.28 19.6842 9.372 19.5002 9.372C19.4122 9.372 19.3682 9.34 19.3682 9.276C19.3682 9.052 19.6002 8.344 20.0642 7.152L19.8362 7.176C19.7882 7.176 19.7642 7.168 19.7642 7.152C19.7642 7.04 19.8842 6.98 20.1242 6.972C20.2522 6.668 20.3882 6.34 20.5322 5.988C20.6762 5.628 20.8322 5.252 21.0002 4.86C20.6322 5.06 20.3682 5.16 20.2082 5.16C20.1762 5.16 20.1602 5.148 20.1602 5.124C20.1602 5.044 20.2162 4.98 20.3282 4.932L20.5322 4.836C20.7642 4.724 20.9722 4.6 21.1562 4.464C21.2602 4.232 21.3882 3.94 21.5402 3.588C21.7002 3.228 21.8922 2.808 22.1162 2.328C22.1562 2.224 22.2082 2.1 22.2722 1.956C22.3442 1.812 22.4242 1.64 22.5122 1.44C22.6002 1.256 22.7882 1.164 23.0762 1.164C23.2282 1.164 23.3042 1.208 23.3042 1.296C23.3042 1.328 23.2682 1.436 23.1962 1.62C23.0842 1.924 22.9322 2.26 22.7402 2.628C22.5562 2.996 22.3322 3.392 22.0682 3.816C22.0282 3.872 21.9762 3.944 21.9122 4.032C21.8562 4.12 21.7882 4.224 21.7082 4.344L21.3242 5.088C21.1242 5.48 20.8362 6.092 20.4602 6.924C20.6202 6.772 20.7242 6.696 20.7722 6.696C20.8362 6.696 20.8922 6.74 20.9402 6.828C20.9562 6.82 20.9922 6.808 21.0482 6.792C21.1122 6.768 21.1922 6.736 21.2882 6.696C21.3202 6.632 21.3602 6.556 21.4082 6.468C21.4642 6.372 21.5282 6.26 21.6002 6.132C21.6962 5.964 21.8002 5.8 21.9122 5.64C22.0322 5.48 22.1602 5.324 22.2962 5.172C22.6722 4.748 22.9802 4.536 23.2202 4.536C23.4762 4.536 23.6042 4.804 23.6042 5.34C23.6042 6.004 22.8762 6.504 21.4202 6.84C21.3722 6.936 21.2882 7.068 21.1682 7.236C21.4162 7.676 21.7162 8.08 22.0682 8.448C22.5322 8.936 22.9482 9.18 23.3162 9.18C23.4762 9.18 23.6122 9.124 23.7242 9.012C23.8522 8.9 23.9202 8.844 23.9282 8.844C23.9602 8.844 23.9762 8.86 23.9762 8.892C23.9762 8.908 23.9682 8.94 23.9522 8.988C23.7602 9.3 23.5082 9.456 23.1962 9.456ZM21.5282 6.636C22.5202 6.276 23.0162 5.82 23.0162 5.268C23.0162 5.044 22.9642 4.932 22.8602 4.932C22.6842 4.932 22.3402 5.32 21.8282 6.096L21.5282 6.636ZM19.9202 8.856C20.2082 8.52 20.5002 8.084 20.7962 7.548C20.7642 7.492 20.7282 7.424 20.6882 7.344C20.6482 7.264 20.6002 7.168 20.5442 7.056L20.4122 7.068C20.3322 7.268 20.2522 7.516 20.1722 7.812C20.0922 8.108 20.0082 8.456 19.9202 8.856ZM24.9004 9.024C24.5244 9.024 24.1844 8.868 23.8804 8.556C23.5844 8.236 23.4364 7.888 23.4364 7.512C23.4364 7.264 23.5004 7.14 23.6284 7.14C23.7084 7.14 23.7884 7.2 23.8684 7.32C24.1084 6.76 24.4484 6.128 24.8884 5.424C25.1684 4.992 25.4964 4.776 25.8724 4.776C25.9524 4.776 26.0444 4.804 26.1484 4.86C26.2604 4.916 26.3164 4.984 26.3164 5.064C26.3164 5.12 26.2644 5.148 26.1604 5.148C26.1524 5.148 26.1404 5.148 26.1244 5.148C26.1084 5.148 26.0884 5.144 26.0644 5.136H25.9684C25.7924 5.136 25.6364 5.188 25.5004 5.292C25.3644 5.396 25.2964 5.536 25.2964 5.712C25.2964 5.776 25.3084 5.844 25.3324 5.916L25.6204 6.876C25.6844 7.068 25.7284 7.248 25.7524 7.416C25.7764 7.576 25.7884 7.724 25.7884 7.86C26.0044 7.828 26.1884 7.748 26.3404 7.62C26.4364 7.54 26.5644 7.38 26.7244 7.14C26.7484 7.108 26.7724 7.092 26.7964 7.092C26.8204 7.092 26.8324 7.108 26.8324 7.14C26.8324 7.148 26.8244 7.176 26.8084 7.224C26.5364 7.68 26.2004 7.948 25.8004 8.028C25.7764 8.308 25.6924 8.54 25.5484 8.724C25.3964 8.924 25.1804 9.024 24.9004 9.024ZM25.2964 8.016C25.3044 7.984 25.3084 7.956 25.3084 7.932C25.3084 7.908 25.3084 7.88 25.3084 7.848C25.3084 7.744 25.2884 7.604 25.2484 7.428C25.2164 7.244 25.1684 7.02 25.1044 6.756C24.9844 6.252 24.9404 5.916 24.9724 5.748C24.7644 5.964 24.4244 6.54 23.9524 7.476C24.1044 7.556 24.2324 7.628 24.3364 7.692C24.4484 7.748 24.5364 7.792 24.6004 7.824C24.7284 7.88 24.8484 7.924 24.9604 7.956C25.0804 7.988 25.1924 8.008 25.2964 8.016ZM24.6484 8.628C24.9684 8.628 25.1804 8.472 25.2844 8.16C24.6444 8.16 24.1564 8.028 23.8204 7.764C23.8364 7.94 23.9324 8.132 24.1084 8.34C24.2924 8.532 24.4724 8.628 24.6484 8.628ZM26.6993 9.372C26.6033 9.372 26.5633 9.34 26.5793 9.276C26.5553 9.228 26.4992 9.124 26.4112 8.964C26.3152 8.828 26.2672 8.744 26.2672 8.712C26.2672 8.648 26.2952 8.612 26.3512 8.604C26.4312 8.556 26.5152 8.496 26.6033 8.424C26.6913 8.352 26.7873 8.272 26.8913 8.184C27.3953 6.712 28.2313 4.692 29.3993 2.124C29.4313 2.044 29.4713 1.948 29.5193 1.836C29.5753 1.724 29.6393 1.592 29.7113 1.44C29.8233 1.256 30.0353 1.164 30.3473 1.164C30.4673 1.164 30.5273 1.192 30.5273 1.248C30.5273 1.264 30.5193 1.28 30.5033 1.296L29.8073 2.604C29.2553 3.644 28.7873 4.58 28.4033 5.412C28.0193 6.244 27.7153 6.976 27.4913 7.608C27.9393 7.16 28.3073 6.76 28.5953 6.408C28.8913 6.048 29.1153 5.732 29.2673 5.46C29.2833 5.42 29.3113 5.364 29.3513 5.292C29.3993 5.212 29.4793 5.172 29.5913 5.172C29.6873 5.172 29.7353 5.204 29.7353 5.268C29.7353 5.308 29.7273 5.364 29.7113 5.436C29.7033 5.508 29.6913 5.6 29.6753 5.712C29.6593 5.816 29.6473 5.908 29.6393 5.988C29.6313 6.06 29.6273 6.124 29.6273 6.18C29.6273 6.668 29.6993 7.16 29.8433 7.656C30.0513 8.344 30.3353 8.688 30.6953 8.688C30.7673 8.688 30.8473 8.668 30.9353 8.628C31.0233 8.588 31.0793 8.568 31.1033 8.568C31.1673 8.568 31.1993 8.6 31.1993 8.664C31.1993 8.744 31.1193 8.816 30.9593 8.88C30.7913 8.944 30.6633 8.976 30.5753 8.976C30.1753 8.976 29.8113 8.652 29.4833 8.004C29.2033 7.42 29.0633 6.876 29.0633 6.372C29.0633 6.332 29.0633 6.296 29.0633 6.264C29.0633 6.232 29.0673 6.2 29.0753 6.168C28.9313 6.376 28.7153 6.632 28.4273 6.936C28.1393 7.24 27.7833 7.592 27.3593 7.992C27.3193 8.128 27.2793 8.26 27.2393 8.388C27.2073 8.516 27.1793 8.636 27.1553 8.748L27.0953 9.048C27.0473 9.264 26.9153 9.372 26.6993 9.372ZM26.6393 9C26.6553 8.936 26.6713 8.864 26.6873 8.784C26.7113 8.704 26.7393 8.624 26.7713 8.544L26.5192 8.748C26.5593 8.804 26.5993 8.888 26.6393 9ZM33.2912 9.048C33.0752 9.048 32.9072 8.936 32.7872 8.712C32.6912 8.528 32.6432 8.316 32.6432 8.076C32.6432 7.956 32.6512 7.824 32.6672 7.68C32.6912 7.528 32.7232 7.364 32.7632 7.188C32.2592 8.308 31.7392 8.868 31.2032 8.868C30.8752 8.868 30.7112 8.656 30.7112 8.232C30.7112 7.552 31.0392 6.848 31.6952 6.12C32.3592 5.376 33.0192 5.004 33.6752 5.004C33.9872 5.004 34.1432 5.14 34.1432 5.412C34.1432 5.748 33.9192 6.084 33.4712 6.42C33.2392 6.996 33.1232 7.588 33.1232 8.196C33.1232 8.652 33.2232 8.88 33.4232 8.88C33.7032 8.88 34.1832 8.376 34.8632 7.368C34.9112 7.304 34.9472 7.272 34.9712 7.272C34.9952 7.272 35.0072 7.288 35.0072 7.32C35.0072 7.36 34.9912 7.4 34.9592 7.44C34.2392 8.512 33.6832 9.048 33.2912 9.048ZM31.2512 8.496C31.7552 8.496 32.2432 7.936 32.7152 6.816C32.6512 6.832 32.5912 6.848 32.5352 6.864C32.4872 6.872 32.4432 6.876 32.4032 6.876C32.3712 6.876 32.3552 6.864 32.3552 6.84C32.3552 6.8 32.4112 6.76 32.5232 6.72L32.8952 6.504C32.9112 6.368 32.9952 6.192 33.1472 5.976C33.2992 5.752 33.4432 5.64 33.5792 5.64C33.6272 5.64 33.6512 5.676 33.6512 5.748C33.6512 5.804 33.6312 5.892 33.5912 6.012C33.7192 5.836 33.7832 5.664 33.7832 5.496C33.7832 5.312 33.6992 5.22 33.5312 5.22C33.1312 5.22 32.6072 5.616 31.9592 6.408C31.3112 7.184 30.9872 7.788 30.9872 8.22C30.9872 8.404 31.0752 8.496 31.2512 8.496ZM39.0919 10.008C39.0119 10.008 38.9319 10.004 38.8519 9.996C38.7799 9.996 38.7039 9.992 38.6239 9.984C38.2879 9.944 37.9759 9.804 37.6879 9.564C37.3599 9.3 37.1959 9.008 37.1959 8.688C37.1959 8.376 37.3479 8.14 37.6519 7.98C37.8999 7.844 38.1919 7.776 38.5279 7.776C38.9839 7.776 39.6119 7.94 40.4119 8.268C40.9639 7.572 41.4559 6.708 41.8879 5.676C41.7759 5.292 41.7199 5.008 41.7199 4.824C41.7199 4.536 41.7759 4.392 41.8879 4.392C42.0159 4.392 42.1279 4.52 42.2239 4.776C42.5119 4.208 42.7999 3.232 43.0879 1.848C41.3279 1.856 39.9959 2.336 39.0919 3.288C38.7879 3.616 38.6359 3.964 38.6359 4.332C38.6359 4.988 38.9919 5.468 39.7039 5.772C39.7679 5.804 39.8439 5.832 39.9319 5.856C40.0199 5.88 40.1279 5.908 40.2559 5.94C40.2959 5.956 40.3159 5.972 40.3159 5.988C40.3159 6.028 40.2879 6.048 40.2319 6.048L40.2079 6.036C39.7199 6.004 39.2719 5.812 38.8639 5.46C38.4239 5.076 38.2039 4.644 38.2039 4.164C38.2039 3.796 38.3519 3.46 38.6479 3.156C39.6239 2.132 41.1159 1.632 43.1239 1.656C43.1719 1.304 43.2439 0.944 43.3399 0.576C43.3719 0.584 43.3879 0.676 43.3879 0.852C43.3879 0.956 43.3799 1.076 43.3639 1.212C43.3479 1.348 43.3239 1.496 43.2919 1.656C43.8279 1.672 44.3279 1.732 44.7919 1.836C45.3759 1.06 45.9839 0.672 46.6159 0.672C46.8879 0.672 47.1359 0.744 47.3599 0.887999C47.5839 1.024 47.7399 1.22 47.8279 1.476C47.8439 1.532 47.8559 1.584 47.8639 1.632C47.8719 1.672 47.8759 1.708 47.8759 1.74C47.8759 1.772 47.8639 1.788 47.8399 1.788C47.7999 1.788 47.7679 1.736 47.7439 1.632C47.6959 1.448 47.5559 1.296 47.3239 1.176C47.1159 1.064 46.9119 1.008 46.7119 1.008C46.1919 1.008 45.7079 1.304 45.2599 1.896C46.2119 2.048 47.0239 2.424 47.6959 3.024C48.4399 3.68 48.8119 4.472 48.8119 5.4C48.8119 5.992 48.6839 6.568 48.4279 7.128C48.0599 7.912 47.5159 8.516 46.7959 8.94C46.0839 9.356 45.2839 9.564 44.3959 9.564C43.4999 9.564 42.5359 9.352 41.5039 8.928C40.9439 9.648 40.1399 10.008 39.0919 10.008ZM41.1199 8.556C41.2639 8.404 41.4239 8.192 41.5999 7.92C41.7759 7.648 41.9519 7.312 42.1279 6.912L43.3039 4.32C43.5679 3.736 43.8159 3.252 44.0479 2.868C44.2799 2.476 44.4879 2.18 44.6719 1.98C44.4479 1.94 44.2159 1.908 43.9759 1.884C43.7439 1.86 43.5039 1.848 43.2559 1.848C43.1759 2.24 43.0639 2.672 42.9199 3.144C42.7839 3.608 42.6199 4.12 42.4279 4.68C42.5399 4.616 42.6239 4.584 42.6799 4.584C42.7439 4.584 42.7759 4.624 42.7759 4.704C42.7759 4.928 42.5159 5.28 41.9959 5.76C41.7879 6.248 41.5559 6.708 41.2999 7.14C41.0519 7.564 40.7879 7.952 40.5079 8.304L41.1199 8.556ZM44.2759 9.36C45.3799 9.36 46.2919 9 47.0119 8.28C47.7319 7.56 48.0919 6.644 48.0919 5.532C48.0919 4.7 47.8079 3.952 47.2399 3.288C46.6799 2.616 45.9839 2.208 45.1519 2.064C45.0239 2.256 44.8799 2.512 44.7199 2.832C44.5599 3.144 44.3759 3.524 44.1679 3.972C43.8959 4.62 43.4519 5.58 42.8359 6.852C42.4039 7.708 42.0039 8.348 41.6359 8.772C42.5719 9.164 43.4519 9.36 44.2759 9.36ZM38.8639 9.72C39.2639 9.72 39.6639 9.632 40.0639 9.456C40.5199 9.264 40.8399 9.02 41.0239 8.724C40.8239 8.612 40.6199 8.516 40.4119 8.436C39.9239 9.036 39.4999 9.336 39.1399 9.336C38.9719 9.336 38.8879 9.288 38.8879 9.192C38.8879 9.152 38.9119 9.132 38.9599 9.132C38.9759 9.132 39.0079 9.136 39.0559 9.144C39.1039 9.16 39.1399 9.168 39.1639 9.168C39.4839 9.168 39.8679 8.908 40.3159 8.388C39.5639 8.06 38.9399 7.896 38.4439 7.896C38.1719 7.896 37.9439 7.948 37.7599 8.052C37.5199 8.172 37.3999 8.356 37.3999 8.604C37.3999 8.924 37.5679 9.196 37.9039 9.42C38.1999 9.62 38.5199 9.72 38.8639 9.72ZM48.9847 9.132C48.9127 9.132 48.8767 9.08 48.8767 8.976V8.952C48.9087 8.84 48.9407 8.7 48.9727 8.532C49.0127 8.364 49.0567 8.168 49.1047 7.944C49.1527 7.72 49.2127 7.44 49.2847 7.104C49.3567 6.76 49.4447 6.364 49.5487 5.916L49.4047 5.568C49.3647 5.464 49.3327 5.388 49.3087 5.34C49.2927 5.292 49.2847 5.268 49.2847 5.268C49.2847 5.212 49.3527 5.16 49.4887 5.112C49.8887 4.96 50.1447 4.884 50.2567 4.884C50.3767 4.884 50.4367 4.92 50.4367 4.992C50.4287 4.968 50.2247 5.48 49.8247 6.528V6.636C49.8247 6.86 49.7887 6.972 49.7167 6.972C49.7087 6.972 49.6967 6.96 49.6807 6.936C49.6167 7.136 49.5527 7.328 49.4887 7.512C49.4327 7.688 49.3807 7.864 49.3327 8.04C49.5087 7.752 49.6887 7.476 49.8727 7.212C50.0647 6.948 50.2607 6.7 50.4607 6.468C51.0607 5.772 51.5567 5.424 51.9487 5.424C52.1327 5.424 52.2247 5.496 52.2247 5.64C52.2247 5.688 52.2127 5.748 52.1887 5.82C52.1247 6.092 52.0367 6.436 51.9247 6.852C51.8127 7.26 51.6807 7.736 51.5287 8.28C51.9927 7.936 52.3527 7.568 52.6087 7.176C52.6487 7.128 52.6767 7.104 52.6927 7.104C52.7167 7.104 52.7287 7.12 52.7287 7.152C52.7287 7.168 52.7167 7.196 52.6927 7.236C52.3407 7.86 51.9127 8.356 51.4087 8.724C51.3767 8.772 51.3247 8.796 51.2527 8.796C51.1967 8.796 51.1687 8.764 51.1687 8.7C51.1687 8.684 51.1807 8.612 51.2047 8.484C51.2287 8.348 51.2607 8.16 51.3007 7.92C51.3407 7.744 51.3767 7.572 51.4087 7.404C51.4407 7.236 51.4727 7.064 51.5047 6.888C51.5607 6.496 51.5967 6.152 51.6127 5.856C51.4367 5.936 51.2447 6.068 51.0367 6.252C50.8367 6.428 50.6127 6.652 50.3647 6.924C50.1407 7.172 49.9447 7.408 49.7767 7.632C49.6167 7.848 49.4847 8.052 49.3807 8.244C49.2687 8.46 49.1847 8.692 49.1287 8.94C49.0967 9.068 49.0487 9.132 48.9847 9.132ZM49.6207 5.592L49.7287 5.196C49.6887 5.228 49.6127 5.268 49.5007 5.316L49.6207 5.592ZM51.2897 13.776C50.8417 13.776 50.3737 13.592 49.8857 13.224C49.3977 12.856 49.1537 12.472 49.1537 12.072C49.1537 12.04 49.1657 12.024 49.1897 12.024C49.2217 12.024 49.2417 12.048 49.2497 12.096C49.5857 12.936 50.1937 13.356 51.0737 13.356C51.5217 13.356 51.9377 13.248 52.3217 13.032C53.0657 12.616 53.6457 11.964 54.0617 11.076C54.1897 10.796 54.3137 10.44 54.4337 10.008C54.5617 9.584 54.6817 9.084 54.7937 8.508C54.8417 8.252 54.9017 7.932 54.9737 7.548C55.0457 7.164 55.1497 6.72 55.2857 6.216L55.4897 5.472C54.9857 5.864 54.3817 6.988 53.6777 8.844C53.6777 8.86 53.6617 8.868 53.6297 8.868C53.5737 8.868 53.5137 8.84 53.4497 8.784C53.3857 8.728 53.3537 8.668 53.3537 8.604C53.3537 8.604 53.3857 8.52 53.4497 8.352C53.5217 8.192 53.5577 8.108 53.5577 8.1C53.7097 7.652 53.7857 6.996 53.7857 6.132C53.7857 5.476 53.6457 5.148 53.3657 5.148C53.2137 5.148 53.0257 5.252 52.8017 5.46C52.5937 5.66 52.4817 5.76 52.4657 5.76C52.4417 5.76 52.4297 5.744 52.4297 5.712C52.4297 5.704 52.4377 5.676 52.4537 5.628C52.5657 5.452 52.7457 5.276 52.9937 5.1C53.2577 4.908 53.4777 4.812 53.6537 4.812C53.9897 4.812 54.1577 5.136 54.1577 5.784C54.1577 6.312 54.0497 6.896 53.8337 7.536C54.4977 6.312 55.0617 5.58 55.5257 5.34C55.6457 4.908 55.7817 4.604 55.9337 4.428C56.1337 4.18 56.4297 4.056 56.8217 4.056C56.9657 4.056 57.0377 4.08 57.0377 4.128C57.0377 4.152 57.0177 4.172 56.9777 4.188C56.8737 4.212 56.7817 4.244 56.7017 4.284C56.3337 4.548 56.0217 5.232 55.7657 6.336C55.5737 7.144 55.4257 7.768 55.3217 8.208C55.2177 8.64 55.1577 8.888 55.1417 8.952C54.8457 10.024 54.5097 10.904 54.1337 11.592C53.6457 12.464 53.0457 13.1 52.3337 13.5C52.0057 13.684 51.6577 13.776 51.2897 13.776ZM58.9435 9.048C58.7275 9.048 58.5595 8.936 58.4395 8.712C58.3435 8.528 58.2955 8.316 58.2955 8.076C58.2955 7.956 58.3035 7.824 58.3195 7.68C58.3435 7.528 58.3755 7.364 58.4155 7.188C57.9115 8.308 57.3915 8.868 56.8555 8.868C56.5275 8.868 56.3635 8.656 56.3635 8.232C56.3635 7.552 56.6915 6.848 57.3475 6.12C58.0115 5.376 58.6715 5.004 59.3275 5.004C59.6395 5.004 59.7955 5.14 59.7955 5.412C59.7955 5.748 59.5715 6.084 59.1235 6.42C58.8915 6.996 58.7755 7.588 58.7755 8.196C58.7755 8.652 58.8755 8.88 59.0755 8.88C59.3555 8.88 59.8355 8.376 60.5155 7.368C60.5635 7.304 60.5995 7.272 60.6235 7.272C60.6475 7.272 60.6595 7.288 60.6595 7.32C60.6595 7.36 60.6435 7.4 60.6115 7.44C59.8915 8.512 59.3355 9.048 58.9435 9.048ZM56.9035 8.496C57.4075 8.496 57.8955 7.936 58.3675 6.816C58.3035 6.832 58.2435 6.848 58.1875 6.864C58.1395 6.872 58.0955 6.876 58.0555 6.876C58.0235 6.876 58.0075 6.864 58.0075 6.84C58.0075 6.8 58.0635 6.76 58.1755 6.72L58.5475 6.504C58.5635 6.368 58.6475 6.192 58.7995 5.976C58.9515 5.752 59.0955 5.64 59.2315 5.64C59.2795 5.64 59.3035 5.676 59.3035 5.748C59.3035 5.804 59.2835 5.892 59.2435 6.012C59.3715 5.836 59.4355 5.664 59.4355 5.496C59.4355 5.312 59.3515 5.22 59.1835 5.22C58.7835 5.22 58.2595 5.616 57.6115 6.408C56.9635 7.184 56.6395 7.788 56.6395 8.22C56.6395 8.404 56.7275 8.496 56.9035 8.496ZM60.4808 9.132C60.4087 9.132 60.3727 9.08 60.3727 8.976V8.952C60.4047 8.84 60.4367 8.7 60.4688 8.532C60.5088 8.364 60.5528 8.168 60.6008 7.944C60.6488 7.72 60.7088 7.44 60.7808 7.104C60.8528 6.76 60.9408 6.364 61.0448 5.916L60.9008 5.568C60.8608 5.464 60.8288 5.388 60.8048 5.34C60.7888 5.292 60.7808 5.268 60.7808 5.268C60.7808 5.212 60.8488 5.16 60.9848 5.112C61.3848 4.96 61.6408 4.884 61.7528 4.884C61.8728 4.884 61.9328 4.92 61.9328 4.992C61.9248 4.968 61.7208 5.48 61.3208 6.528V6.636C61.3208 6.86 61.2848 6.972 61.2128 6.972C61.2048 6.972 61.1928 6.96 61.1768 6.936C61.1128 7.136 61.0488 7.328 60.9848 7.512C60.9288 7.688 60.8768 7.864 60.8288 8.04C61.0048 7.752 61.1848 7.476 61.3688 7.212C61.5608 6.948 61.7568 6.7 61.9568 6.468C62.5568 5.772 63.0528 5.424 63.4448 5.424C63.6288 5.424 63.7208 5.496 63.7208 5.64C63.7208 5.688 63.7088 5.748 63.6848 5.82C63.6208 6.092 63.5328 6.436 63.4208 6.852C63.3088 7.26 63.1768 7.736 63.0248 8.28C63.4888 7.936 63.8488 7.568 64.1048 7.176C64.1448 7.128 64.1728 7.104 64.1888 7.104C64.2128 7.104 64.2248 7.12 64.2248 7.152C64.2248 7.168 64.2128 7.196 64.1888 7.236C63.8368 7.86 63.4088 8.356 62.9048 8.724C62.8728 8.772 62.8208 8.796 62.7488 8.796C62.6928 8.796 62.6648 8.764 62.6648 8.7C62.6648 8.684 62.6768 8.612 62.7008 8.484C62.7248 8.348 62.7568 8.16 62.7968 7.92C62.8368 7.744 62.8728 7.572 62.9048 7.404C62.9368 7.236 62.9688 7.064 63.0008 6.888C63.0568 6.496 63.0928 6.152 63.1088 5.856C62.9328 5.936 62.7408 6.068 62.5328 6.252C62.3328 6.428 62.1088 6.652 61.8608 6.924C61.6368 7.172 61.4408 7.408 61.2728 7.632C61.1128 7.848 60.9808 8.052 60.8768 8.244C60.7648 8.46 60.6808 8.692 60.6248 8.94C60.5928 9.068 60.5448 9.132 60.4808 9.132ZM61.1168 5.592L61.2248 5.196C61.1848 5.228 61.1088 5.268 60.9968 5.316L61.1168 5.592ZM64.6458 8.964C64.3338 8.964 64.1778 8.764 64.1778 8.364C64.1778 7.876 64.3618 7.376 64.7298 6.864C64.6018 6.552 64.5378 6.22 64.5378 5.868C64.5378 5.524 64.6058 5.224 64.7418 4.968C64.9978 4.464 65.3258 4.212 65.7258 4.212C66.2218 4.212 66.5098 4.636 66.5898 5.484C66.7898 5.492 66.9378 5.556 67.0338 5.676C67.1378 5.788 67.1898 5.948 67.1898 6.156C67.1898 6.316 67.1698 6.432 67.1298 6.504C67.0978 6.568 67.0658 6.6 67.0338 6.6C67.0018 6.6 66.9858 6.584 66.9858 6.552C66.9858 6.512 66.9898 6.464 66.9978 6.408C67.0138 6.352 67.0218 6.284 67.0218 6.204C67.0218 6.092 66.9818 6.008 66.9018 5.952C66.8218 5.888 66.7218 5.856 66.6018 5.856C66.5058 6.832 66.2698 7.58 65.8938 8.1H66.2658C66.1618 8.164 66.0698 8.196 65.9898 8.196C65.9738 8.196 65.9498 8.192 65.9178 8.184C65.8938 8.176 65.8738 8.172 65.8578 8.172C65.8738 8.18 65.7338 8.312 65.4378 8.568C65.1258 8.832 64.8618 8.964 64.6458 8.964ZM64.8618 6.732C65.3498 6.076 65.8618 5.668 66.3978 5.508C66.2378 4.82 66.0178 4.476 65.7378 4.476C65.4818 4.476 65.2458 4.728 65.0298 5.232C64.8938 5.568 64.8258 5.924 64.8258 6.3C64.8258 6.452 64.8378 6.596 64.8618 6.732ZM65.5098 8.04C65.7018 7.864 65.8978 7.52 66.0978 7.008C66.3058 6.48 66.4098 6.092 66.4098 5.844C66.2338 5.868 65.9578 6.032 65.5818 6.336C65.2138 6.632 64.9858 6.868 64.8978 7.044C65.0658 7.652 65.2698 7.984 65.5098 8.04ZM64.6818 8.604C64.9058 8.604 65.1658 8.436 65.4618 8.1C65.1978 8.068 64.9818 7.752 64.8138 7.152C64.5498 7.592 64.4178 7.936 64.4178 8.184C64.4178 8.464 64.5058 8.604 64.6818 8.604ZM67.5896 9.54C67.5336 9.54 67.5056 9.472 67.5056 9.336C67.5056 9.248 67.5176 9.14 67.5416 9.012C67.3576 8.9 67.2656 8.76 67.2656 8.592C67.2656 8.328 67.4776 8.068 67.9016 7.812C67.9656 7.62 68.0376 7.412 68.1176 7.188C68.1976 6.964 68.2896 6.728 68.3936 6.48C68.3216 6.552 68.2416 6.636 68.1536 6.732C68.0656 6.828 67.9656 6.94 67.8536 7.068C67.8136 7.108 67.7816 7.128 67.7576 7.128C67.7336 7.128 67.7216 7.112 67.7216 7.08C67.7216 6.952 67.9896 6.644 68.5256 6.156C68.8696 5.308 69.2136 4.488 69.5576 3.696C69.9096 2.904 70.2616 2.136 70.6136 1.392C70.6456 1.328 70.6856 1.252 70.7336 1.164C70.7816 1.068 70.8376 0.956 70.9016 0.827999C70.9896 0.692 71.1536 0.624 71.3936 0.624C71.5456 0.624 71.6216 0.66 71.6216 0.732C71.6216 0.74 71.6136 0.76 71.5976 0.792C71.1096 1.736 70.6656 2.608 70.2656 3.408C69.8656 4.208 69.5136 4.936 69.2096 5.592C69.8496 5.136 70.3536 4.908 70.7216 4.908C71.1056 4.908 71.2976 5.172 71.2976 5.7C71.2976 6.156 71.1536 6.648 70.8656 7.176C71.0896 7.184 71.2016 7.224 71.2016 7.296C71.2016 7.328 71.1776 7.344 71.1296 7.344C71.0896 7.344 71.0296 7.34 70.9496 7.332C70.8696 7.324 70.8136 7.32 70.7816 7.32C70.4776 7.816 70.1056 8.232 69.6656 8.568C69.1536 8.952 68.6416 9.144 68.1296 9.144C67.9696 9.144 67.8376 9.128 67.7336 9.096L67.6976 9.348C67.6736 9.476 67.6376 9.54 67.5896 9.54ZM68.2976 7.608C68.9136 7.352 69.6216 7.204 70.4216 7.164C70.5416 6.828 70.6016 6.42 70.6016 5.94C70.6016 5.54 70.4656 5.34 70.1936 5.34C69.9136 5.34 69.5376 5.524 69.0656 5.892C68.9136 6.22 68.7736 6.528 68.6456 6.816C68.5176 7.104 68.4016 7.368 68.2976 7.608ZM68.0816 8.916C68.5456 8.916 68.9936 8.76 69.4256 8.448C69.8656 8.128 70.1736 7.752 70.3496 7.32C69.5656 7.384 68.8256 7.608 68.1296 7.992L67.7936 8.892C67.8336 8.9 67.8776 8.908 67.9256 8.916C67.9736 8.916 68.0256 8.916 68.0816 8.916ZM67.6016 8.784C67.6176 8.704 67.6376 8.624 67.6616 8.544C67.6856 8.456 67.7136 8.36 67.7456 8.256C67.6016 8.384 67.5296 8.508 67.5296 8.628C67.5296 8.684 67.5536 8.736 67.6016 8.784ZM73.4162 9.048C73.2002 9.048 73.0322 8.936 72.9122 8.712C72.8162 8.528 72.7682 8.316 72.7682 8.076C72.7682 7.956 72.7762 7.824 72.7922 7.68C72.8162 7.528 72.8482 7.364 72.8882 7.188C72.3842 8.308 71.8642 8.868 71.3282 8.868C71.0002 8.868 70.8362 8.656 70.8362 8.232C70.8362 7.552 71.1642 6.848 71.8202 6.12C72.4842 5.376 73.1442 5.004 73.8002 5.004C74.1122 5.004 74.2682 5.14 74.2682 5.412C74.2682 5.748 74.0442 6.084 73.5962 6.42C73.3642 6.996 73.2482 7.588 73.2482 8.196C73.2482 8.652 73.3482 8.88 73.5482 8.88C73.8282 8.88 74.3082 8.376 74.9882 7.368C75.0362 7.304 75.0722 7.272 75.0962 7.272C75.1202 7.272 75.1322 7.288 75.1322 7.32C75.1322 7.36 75.1162 7.4 75.0842 7.44C74.3642 8.512 73.8082 9.048 73.4162 9.048ZM71.3762 8.496C71.8802 8.496 72.3682 7.936 72.8402 6.816C72.7762 6.832 72.7162 6.848 72.6602 6.864C72.6122 6.872 72.5682 6.876 72.5282 6.876C72.4962 6.876 72.4802 6.864 72.4802 6.84C72.4802 6.8 72.5362 6.76 72.6482 6.72L73.0202 6.504C73.0362 6.368 73.1202 6.192 73.2722 5.976C73.4242 5.752 73.5682 5.64 73.7042 5.64C73.7522 5.64 73.7762 5.676 73.7762 5.748C73.7762 5.804 73.7562 5.892 73.7162 6.012C73.8442 5.836 73.9082 5.664 73.9082 5.496C73.9082 5.312 73.8242 5.22 73.6562 5.22C73.2562 5.22 72.7322 5.616 72.0842 6.408C71.4362 7.184 71.1122 7.788 71.1122 8.22C71.1122 8.404 71.2002 8.496 71.3762 8.496ZM79.3609 10.692C78.7289 10.692 78.2289 10.488 77.8609 10.08C77.4929 9.672 77.3089 9.144 77.3089 8.496C77.3089 7.816 77.5089 7.216 77.9089 6.696C78.3249 6.136 78.8729 5.856 79.5529 5.856C79.7449 5.856 79.9249 5.912 80.0929 6.024C80.2689 6.136 80.3569 6.28 80.3569 6.456C80.3569 6.496 80.3449 6.524 80.3209 6.54L80.2009 6.3C80.1209 6.156 79.9489 6.084 79.6849 6.084C79.1009 6.084 78.6209 6.384 78.2449 6.984C77.9169 7.504 77.7529 8.072 77.7529 8.688C77.7529 9.224 77.8769 9.656 78.1249 9.984C78.4049 10.36 78.8009 10.548 79.3129 10.548C80.3129 10.548 81.2769 9.88 82.2049 8.544C83.1889 7.112 83.8929 5.716 84.3169 4.356C84.3809 4.172 84.4369 3.98 84.4849 3.78C84.5409 3.58 84.5929 3.368 84.6409 3.144L84.7849 2.472C84.8569 2.224 85.0209 2.1 85.2769 2.1C85.4289 2.1 85.5049 2.16 85.5049 2.28C85.5049 2.312 85.4969 2.372 85.4809 2.46C85.4729 2.548 85.4529 2.66 85.4209 2.796C85.1729 3.932 84.7769 5.076 84.2329 6.228H84.4369C85.1089 6.228 85.8889 6.104 86.7769 5.856C87.3609 5.688 87.8409 5.452 88.2169 5.148C88.6889 4.764 88.9249 4.308 88.9249 3.78C88.9249 3.188 88.6489 2.66 88.0969 2.196C87.6409 1.82 87.0889 1.544 86.4409 1.368C85.8169 1.2 85.1809 1.12 84.5329 1.128H84.2929C84.2769 1.448 84.2369 1.784 84.1729 2.136C84.1089 2.48 84.0249 2.84 83.9209 3.216C84.0569 3.128 84.1649 3.084 84.2449 3.084C84.3249 3.084 84.3649 3.128 84.3649 3.216C84.3649 3.376 84.2809 3.56 84.1129 3.768C84.0329 3.872 83.9489 3.96 83.8609 4.032C83.7809 4.104 83.7009 4.164 83.6209 4.212C83.4449 4.724 83.2449 5.232 83.0209 5.736C82.7969 6.232 82.5449 6.72 82.2649 7.2C81.5929 8.384 80.9169 9.224 80.2369 9.72C79.8449 10.016 79.4969 10.164 79.1929 10.164C79.1129 10.164 79.0729 10.136 79.0729 10.08C79.0729 10.04 79.1129 10.012 79.1929 9.996C79.2729 9.988 79.4089 9.956 79.6009 9.9C80.3769 9.604 81.1729 8.776 81.9889 7.416C82.3009 6.896 82.5809 6.368 82.8289 5.832C83.0849 5.288 83.3049 4.736 83.4889 4.176C83.3049 3.92 83.2129 3.66 83.2129 3.396C83.2129 3.084 83.2929 2.928 83.4529 2.928C83.5649 2.928 83.6649 3.044 83.7529 3.276C83.8569 2.9 83.9369 2.536 83.9929 2.184C84.0569 1.824 84.1049 1.476 84.1369 1.14C83.3609 1.172 82.6169 1.304 81.9049 1.536C81.0729 1.816 80.4209 2.196 79.9489 2.676C79.6289 3.004 79.4689 3.364 79.4689 3.756C79.4689 4.404 79.8129 4.872 80.5009 5.16C80.6049 5.216 80.7849 5.268 81.0409 5.316C81.0889 5.324 81.1129 5.344 81.1129 5.376C81.1129 5.424 81.0809 5.44 81.0169 5.424H80.9929C80.4889 5.384 80.0209 5.18 79.5889 4.812C79.1249 4.42 78.8929 3.976 78.8929 3.48C78.8929 3.128 79.0369 2.804 79.3249 2.508C79.8129 2.012 80.5689 1.62 81.5929 1.332C82.3929 1.108 83.2489 0.975999 84.1609 0.935999V0.12C84.1609 0.0559998 84.1849 0.0239997 84.2329 0.0239997C84.2569 0.0239997 84.2689 0.0439997 84.2689 0.0839996C84.3089 0.316 84.3209 0.595999 84.3049 0.924H84.8809C85.2169 0.924 85.5409 0.94 85.8529 0.972C86.1649 1.004 86.4689 1.052 86.7649 1.116C87.1329 1.196 87.4689 1.296 87.7729 1.416C88.0769 1.536 88.3529 1.684 88.6009 1.86C89.2409 2.308 89.5609 2.852 89.5609 3.492C89.5609 4.116 89.2529 4.676 88.6369 5.172C88.1569 5.556 87.5609 5.856 86.8489 6.072C85.9849 6.328 85.0849 6.444 84.1489 6.42C82.7649 9.268 81.1689 10.692 79.3609 10.692ZM88.845 8.964C88.533 8.964 88.377 8.764 88.377 8.364C88.377 7.876 88.561 7.376 88.929 6.864C88.801 6.552 88.737 6.22 88.737 5.868C88.737 5.524 88.805 5.224 88.941 4.968C89.197 4.464 89.525 4.212 89.925 4.212C90.421 4.212 90.709 4.636 90.789 5.484C90.989 5.492 91.137 5.556 91.233 5.676C91.337 5.788 91.389 5.948 91.389 6.156C91.389 6.316 91.369 6.432 91.329 6.504C91.297 6.568 91.265 6.6 91.233 6.6C91.201 6.6 91.185 6.584 91.185 6.552C91.185 6.512 91.189 6.464 91.197 6.408C91.213 6.352 91.221 6.284 91.221 6.204C91.221 6.092 91.181 6.008 91.101 5.952C91.021 5.888 90.921 5.856 90.801 5.856C90.705 6.832 90.469 7.58 90.093 8.1H90.465C90.361 8.164 90.269 8.196 90.189 8.196C90.173 8.196 90.149 8.192 90.117 8.184C90.093 8.176 90.073 8.172 90.057 8.172C90.073 8.18 89.933 8.312 89.637 8.568C89.325 8.832 89.061 8.964 88.845 8.964ZM89.061 6.732C89.549 6.076 90.061 5.668 90.597 5.508C90.437 4.82 90.217 4.476 89.937 4.476C89.681 4.476 89.445 4.728 89.229 5.232C89.093 5.568 89.025 5.924 89.025 6.3C89.025 6.452 89.037 6.596 89.061 6.732ZM89.709 8.04C89.901 7.864 90.097 7.52 90.297 7.008C90.505 6.48 90.609 6.092 90.609 5.844C90.433 5.868 90.157 6.032 89.781 6.336C89.413 6.632 89.185 6.868 89.097 7.044C89.265 7.652 89.469 7.984 89.709 8.04ZM88.881 8.604C89.105 8.604 89.365 8.436 89.661 8.1C89.397 8.068 89.181 7.752 89.013 7.152C88.749 7.592 88.617 7.936 88.617 8.184C88.617 8.464 88.705 8.604 88.881 8.604ZM91.3787 8.928C91.2907 8.928 91.2467 8.904 91.2467 8.856C91.2467 8.568 91.3627 8.2 91.5947 7.752C91.8827 7.192 92.0507 6.828 92.0987 6.66C92.1787 6.388 92.2187 6.052 92.2187 5.652C92.1947 5.732 92.1427 5.848 92.0627 6C91.9827 6.152 91.8747 6.344 91.7387 6.576C91.6107 6.8 91.4947 6.988 91.3907 7.14C91.2947 7.284 91.2147 7.4 91.1507 7.488C91.1507 7.496 91.1427 7.5 91.1267 7.5C91.0867 7.5 91.0667 7.484 91.0667 7.452L91.4267 6.84C91.6267 6.504 91.7867 6.196 91.9067 5.916C92.0267 5.628 92.1147 5.372 92.1707 5.148C92.2187 4.94 92.3147 4.836 92.4587 4.836C92.6027 4.836 92.6747 5.004 92.6747 5.34C92.6747 5.516 92.6507 5.736 92.6027 6C92.5547 6.264 92.4747 6.568 92.3627 6.912L91.8587 8.484C92.1547 8.26 92.4387 8.004 92.7107 7.716C92.9907 7.428 93.2427 7.096 93.4667 6.72L93.5387 6.6C93.6267 6.016 93.7347 5.648 93.8627 5.496C93.8947 5.44 93.9667 5.412 94.0787 5.412C94.2467 5.412 94.3307 5.456 94.3307 5.544C94.3307 5.784 94.2547 6.004 94.1027 6.204C93.9267 6.804 93.8387 7.388 93.8387 7.956C93.8387 8.34 93.9587 8.532 94.1987 8.532C94.3187 8.532 94.4587 8.464 94.6187 8.328C94.7787 8.192 94.8547 8.124 94.8467 8.124C94.8707 8.124 94.8827 8.148 94.8827 8.196V8.22C94.6107 8.604 94.3067 8.796 93.9707 8.796C93.6267 8.796 93.4547 8.5 93.4547 7.908C93.4547 7.764 93.4587 7.608 93.4667 7.44C93.4827 7.272 93.4987 7.088 93.5147 6.888C93.2107 7.464 92.7107 8.024 92.0147 8.568C91.9747 8.6 91.9187 8.644 91.8467 8.7C91.7747 8.756 91.6947 8.816 91.6067 8.88C91.5667 8.912 91.4907 8.928 91.3787 8.928ZM95.6492 8.88C95.2492 8.88 95.0492 8.676 95.0492 8.268C95.0492 7.828 95.2532 7.056 95.6612 5.952C95.4612 6.224 95.3212 6.36 95.2412 6.36C95.2172 6.36 95.2052 6.348 95.2052 6.324C95.2052 6.316 95.3092 6.176 95.5172 5.904C95.6212 5.768 95.7012 5.664 95.7572 5.592C95.8212 5.512 95.8572 5.46 95.8652 5.436C95.9052 5.324 95.9612 5.18 96.0332 5.004C96.1052 4.828 96.1892 4.628 96.2852 4.404C96.4612 4.004 96.6412 3.604 96.8252 3.204C97.0092 2.796 97.2012 2.388 97.4012 1.98C97.4652 1.844 97.5452 1.68 97.6412 1.488C97.7452 1.296 97.8652 1.076 98.0012 0.827999C98.0892 0.692 98.2532 0.624 98.4932 0.624C98.6372 0.624 98.7092 0.66 98.7092 0.732C98.7092 0.756 98.7052 0.776 98.6972 0.792L98.0492 2.232L97.7852 2.808C97.7292 2.84 97.6572 2.9 97.5692 2.988C97.5692 2.988 97.5252 3.072 97.4372 3.24C97.3572 3.408 97.2292 3.656 97.0532 3.984C95.9252 6.176 95.3612 7.608 95.3612 8.28C95.3612 8.544 95.4492 8.676 95.6252 8.676C95.8252 8.676 96.0612 8.564 96.3332 8.34C96.6132 8.108 96.7452 7.992 96.7292 7.992C96.7612 7.992 96.7772 8.008 96.7772 8.04C96.7772 8.072 96.7612 8.104 96.7292 8.136C96.3772 8.632 96.0172 8.88 95.6492 8.88Z" fill="white"/>
</svg>
